<?xml version="1.0" encoding="UTF-8" standalone="no"?>
<svg
   viewBox="0 0 96 64"
   width="96"
   height="64"
   version="1.1"
   id="svg2"
   sodipodi:docname="amplifier_pa.svg"
   inkscape:version="1.4.2 (f4327f4, 2025-05-13)"
   xmlns:inkscape="http://www.inkscape.org/namespaces/inkscape"
   xmlns:sodipodi="http://sodipodi.sourceforge.net/DTD/sodipodi-0.dtd"
   xmlns="http://www.w3.org/2000/svg"
   xmlns:svg="http://www.w3.org/2000/svg">
  <defs
     id="defs2" />
  <sodipodi:namedview
     id="namedview2"
     pagecolor="#ffffff"
     bordercolor="#000000"
     borderopacity="0.25"
     inkscape:showpageshadow="2"
     inkscape:pageopacity="0.0"
     inkscape:pagecheckerboard="0"
     inkscape:deskcolor="#d1d1d1"
     inkscape:zoom="9.15625"
     inkscape:cx="48"
     inkscape:cy="32"
     inkscape:window-width="1440"
     inkscape:window-height="830"
     inkscape:window-x="-6"
     inkscape:window-y="-6"
     inkscape:window-maximized="1"
     inkscape:current-layer="svg2" />
  <g
     fill="none"
     stroke="#111"
     stroke-width="2.4"
     stroke-linecap="round"
     stroke-linejoin="round"
     id="g2">
    <line
       x1="8"
       y1="32"
       x2="24"
       y2="32"
       id="line1" />
    <polygon
       points="24,16 24,48 68,32"
       id="polygon1" />
    <line
       x1="68"
       y1="32"
       x2="88"
       y2="32"
       id="line2" />
    <text
       x="40"
       y="36"
       font-family="Arial"
       font-size="12"
       fill="#111"
       stroke="none"
       id="text2">PA</text>
  </g>
  <path
     sodipodi:type="star"
     style="fill:none;paint-order:stroke fill markers"
     id="path25"
     inkscape:flatsided="false"
     sodipodi:sides="5"
     sodipodi:cx="39.42662"
     sodipodi:cy="24.791809"
     sodipodi:r1="18.21273"
     sodipodi:r2="4.2765279"
     sodipodi:arg1="0.28571303"
     sodipodi:arg2="1.6498324"
     inkscape:rounded="0"
     inkscape:randomized="0"
     d="M 56.901024,29.924915 39.088972,29.054987 39.944634,42.997171 35.267758,25.788081 22.272367,30.910236 37.193951,21.144361 28.306695,10.367843 42.205617,21.54129 49.708382,9.7588809 43.376804,26.430326 Z"
     inkscape:transform-center-x="-0.16007503"
     inkscape:transform-center-y="1.5862169" />
  <path
     sodipodi:type="star"
     style="fill:none;paint-order:stroke fill markers"
     id="path26"
     inkscape:flatsided="false"
     sodipodi:sides="5"
     sodipodi:cx="43.249147"
     sodipodi:cy="25.774744"
     sodipodi:r1="8.9795734"
     sodipodi:r2="2.108492"
     sodipodi:arg1="0.71654167"
     sodipodi:arg2="1.3448602"
     inkscape:rounded="0"
     inkscape:randomized="0"
     d="m 50.020476,31.672355 -6.298989,-3.842707 -3.988846,6.207476 1.708136,-7.178156 -7.136282,-1.875403 7.354676,-0.593638 -0.421619,-7.366539 2.837303,6.811268 6.875708,-2.677368 -5.601126,4.803233 z"
     inkscape:transform-center-x="0.62161648"
     inkscape:transform-center-y="-0.24448773" />
  <path
     style="fill:#ffffff;stroke-width:0.109215;paint-order:stroke fill markers"
     d="M 25.283276,31.998191 V 17.803925 l 0.682594,0.25462 c 0.375427,0.140042 6.28438,2.28979 13.131007,4.777219 11.925447,4.332601 12.422625,4.523959 11.834597,4.554992 l -0.613813,0.03239 -1.452182,3.790133 c -0.798699,2.084571 -1.542031,4.025941 -1.651848,4.314154 l -0.199667,0.524023 0.68337,-0.03256 0.68337,-0.03256 0.45266,-1.255973 0.45266,-1.255972 1.743525,-0.02993 1.743525,-0.02993 0.465552,1.209697 c 0.256054,0.665334 0.447641,1.22309 0.42575,1.239459 -0.02189,0.01637 -6.035707,2.207082 -13.364035,4.868251 -7.328327,2.661169 -13.705119,4.978444 -14.170648,5.1495 l -0.846417,0.311011 z m 16.819113,2.306548 v -1.736216 l 1.774744,-0.04213 c 1.520809,-0.0361 1.84789,-0.07542 2.285961,-0.274778 1.727964,-0.786377 1.833678,-3.647682 0.167659,-4.537981 -0.432289,-0.231011 -0.612385,-0.248178 -2.945087,-0.280744 L 40.901024,27.3982 v 4.321376 4.321376 h 0.600682 0.600683 z"
     id="path27" />
  <path
     style="fill:#ffffff;stroke-width:0.109215;paint-order:stroke fill markers"
     d="M 25.283276,32.000158 V 17.805971 l 1.064847,0.384942 c 0.585665,0.211718 6.495563,2.361006 13.133106,4.776195 11.557654,4.205461 12.042358,4.39262 11.456063,4.423537 l -0.612196,0.03228 -1.456178,3.790242 c -0.800899,2.084634 -1.545904,4.026053 -1.655566,4.314266 l -0.199388,0.524023 0.68337,-0.03256 0.68337,-0.03256 0.45266,-1.255973 0.45266,-1.255972 1.747334,-0.02995 1.747333,-0.02995 0.449245,1.159195 c 0.247085,0.637558 0.448954,1.191649 0.448598,1.231315 -4.96e-4,0.05535 -13.128499,4.859952 -27.658056,10.12233 l -0.737202,0.267003 z m 16.819113,2.304581 v -1.736216 l 1.774744,-0.03945 c 1.601004,-0.03559 1.82649,-0.06484 2.30333,-0.298755 1.715681,-0.841647 1.808481,-3.630565 0.15029,-4.516682 -0.432289,-0.231011 -0.612385,-0.248178 -2.945087,-0.280744 l -2.484642,-0.03469 v 4.321376 4.321376 h 0.600682 0.600683 z"
     id="path28" />
  <path
     style="fill:#ffffff;stroke-width:0.109215;paint-order:stroke fill markers"
     d="m 41.010239,31.679511 v -4.252229 l 2.211604,0.05692 c 2.938581,0.07563 3.382292,0.226327 3.970711,1.348563 0.285573,0.544644 0.264628,1.658438 -0.04236,2.252473 -0.548375,1.061141 -1.320605,1.351622 -3.593229,1.351622 H 41.99317 v 1.74744 1.747441 h -0.491468 -0.491467 z m 4.528346,-0.335746 c 1.012365,-0.509604 1.100651,-2.145308 0.147168,-2.726631 -0.320785,-0.195577 -0.549192,-0.220459 -2.02705,-0.220821 l -1.665529,-4.09e-4 v 1.593635 1.593635 l 1.610922,-0.03827 c 1.145937,-0.02722 1.704317,-0.08528 1.934489,-0.201143 z"
     id="path29" />
  <path
     style="fill:#ffffff;paint-order:stroke fill markers"
     id="path32"
     d="m 31.711695,25.737283 c 0.34021,0.420281 0.570883,0.93464 0.663145,1.468206 0.0201,0.116247 0.02596,0.234511 0.03895,0.351766 0.0089,0.116216 0.046,0.560948 0.04346,0.680156 -0.002,0.09268 -0.02358,0.183985 -0.03022,0.276444 -0.01778,0.247702 -0.01674,0.493106 -0.04327,0.740483 -0.009,0.06382 -0.01809,0.127637 -0.02713,0.191456 0,0 13.053286,6.643021 13.053286,6.643021 v 0 c -0.0097,-0.07628 -0.01944,-0.152559 -0.02916,-0.228838 -0.03118,-0.283035 -0.03842,-0.569314 -0.07383,-0.851611 -0.01434,-0.1143 -0.04367,-0.226472 -0.05621,-0.340982 -0.02768,-0.252756 -0.01461,-0.508943 -0.05228,-0.761007 -0.03783,-0.390794 -0.04738,-0.765734 -0.04375,-1.157707 0.0021,-0.225867 -0.02121,-0.450598 0.07325,-0.663656 z" />
  <path
     style="fill:#ffffff;paint-order:stroke fill markers"
     id="path33"
     d="m 49.627697,31.231598 c -0.106673,0.239332 -0.269823,0.447258 -0.378669,0.685089 -0.04344,0.09492 -0.1394,0.34569 -0.175787,0.43912 -0.09424,0.28999 -0.296189,0.537119 -0.373871,0.831813 -0.06048,0.193107 -0.119506,0.385603 -0.182316,0.578211 -0.0065,0.0064 -0.01307,0.01275 -0.0196,0.01913 0,0 0.0038,3e-4 0.0038,3e-4 v 0 c 0.0065,-0.0064 0.01307,-0.01287 0.01961,-0.01931 0.06281,-0.192614 0.121835,-0.385119 0.182316,-0.578233 0.07772,-0.294665 0.279641,-0.541789 0.373861,-0.83177 0.03643,-0.09354 0.132293,-0.34406 0.175788,-0.439082 0.108856,-0.237816 0.271983,-0.44575 0.378672,-0.685063 z" />
  <path
     style="fill:#ffffff;paint-order:stroke fill markers"
     id="path34"
     d="m 49.846127,30.072426 c -0.500592,1.096195 -0.991517,2.196959 -1.429888,3.319651 -0.231575,0.58596 -0.118568,0.316336 -0.334564,0.810724 0,0 0.0038,1.55e-4 0.0038,1.55e-4 v 0 c 0.215984,-0.494403 0.102983,-0.224774 0.33455,-0.81074 0.43837,-1.122691 0.929295,-2.223455 1.429915,-3.319637 z" />
  <path
     style="fill:#ffffff;paint-order:stroke fill markers"
     id="path35"
     d="m 46.298755,30.203324 c -0.170466,0.459026 -0.403437,0.892141 -0.559428,1.356301 0,0 7.536535,0.260478 7.536535,0.260478 v 0 c 0.127408,-0.326286 0.285766,-0.744124 0.47494,-1.03421 0.02328,-0.0357 0.05555,-0.06466 0.08333,-0.097 z" />
  <path
     style="fill:#ffffff;paint-order:stroke fill markers"
     id="path36"
     d="m 39.090538,26.968308 c 0.09605,1.010405 0.100267,2.026874 0.103355,3.040987 0.01799,0.675805 -0.07993,1.345987 -0.120065,2.019173 -0.01775,0.401723 -0.01133,0.803992 -0.0064,1.205925 0.0034,0.365799 0.0025,0.731629 9.28e-4,1.097437 -0.0018,0.33079 0.0019,0.661575 0.0012,0.992363 0.0017,0.288171 -0.07961,0.567798 -0.108372,0.854367 -0.0022,0.04886 -0.0044,0.09771 -0.0066,0.146569 0,0 3.775577,0.01913 3.775577,0.01913 v 0 c 0.0024,-0.04222 0.0048,-0.08445 0.0072,-0.126671 0.03209,-0.298419 0.1174,-0.591453 0.104356,-0.893369 -6.35e-4,-0.330722 0.003,-0.661436 0.002,-0.99216 -0.0011,-0.366919 -0.0025,-0.733832 -0.0045,-1.100748 -0.0016,-0.393908 -0.01258,-0.78801 0.0043,-1.181748 0.0356,-0.680783 0.128838,-1.359293 0.105898,-2.042287 -0.0079,-1.027254 -0.02181,-2.055204 -0.08646,-3.08071 z" />
  <path
     style="fill:#ffffff;paint-order:stroke fill markers"
     id="path37"
     d="m 41.469668,27.081529 c -0.07162,0.341961 -0.09997,0.688453 -0.110405,1.03688 -0.0089,0.361155 7.72e-4,0.722407 0.0027,1.083594 0.0029,0.432084 0.0017,0.864183 0.0023,1.296274 0.0028,0.46351 -0.0024,0.927019 -5.08e-4,1.390526 0.0025,0.405903 -0.0023,0.811806 -0.0014,1.217703 4.41e-4,0.305683 -5.28e-4,0.611362 -0.0014,0.917043 -5.07e-4,0.07861 7.18e-4,0.157245 -0.0024,0.235812 0,0 3.781294,1e-6 3.781294,1e-6 v 0 c -0.0031,-0.07857 -0.0019,-0.157199 -0.0024,-0.235813 -9.02e-4,-0.305682 -0.0019,-0.611363 -0.0014,-0.917047 9.69e-4,-0.405895 -0.0039,-0.811797 -0.0014,-1.217699 0.0019,-0.463448 -0.0032,-0.926901 2e-5,-1.390353 10e-4,-0.432944 9.02e-4,-0.865888 -1.43e-4,-1.298832 -0.0026,-0.356218 -0.0068,-0.71248 -0.0036,-1.068694 0.01295,-0.353219 0.05682,-0.701051 0.116232,-1.049395 z" />
  <path
     style="fill:#ffffff;paint-order:stroke fill markers"
     id="path38"
     d="m 43.742998,27.180649 c -0.08191,0.695604 -0.08321,1.398548 -0.08763,2.098151 -0.0015,0.663769 0.0039,1.327528 0.0027,1.991295 0.01,0.477633 -0.02152,0.956501 0.02034,1.43275 0.06405,0.391653 0.08868,0.786067 0.09403,1.182338 -0.0202,0.305269 0.0198,0.604691 0.06735,0.905161 0,0 3.774352,-0.06102 3.774352,-0.06102 v 0 C 47.56672,34.44708 47.52149,34.167848 47.5448,33.880002 47.5391,33.473531 47.51955,33.067558 47.44934,32.66635 c -0.05002,-0.463302 -0.0064,-0.932177 -0.02247,-1.39742 -0.0053,-0.662517 -0.01021,-1.325054 -0.01047,-1.987594 0.0049,-0.679779 5.13e-4,-1.364619 0.102181,-2.038327 z" />
  <path
     style="fill:#ffffff;paint-order:stroke fill markers"
     id="path39"
     d="m 45.490956,28.079851 c -0.08471,0.79978 -0.163844,1.59878 -0.194078,2.40278 -0.01847,0.708272 -0.0047,1.416876 -0.0016,2.125274 0.0011,0.380869 0.0014,0.761766 -0.0021,1.142623 0,0 3.776465,5.55e-4 3.776465,5.55e-4 v 0 c -0.0024,-0.382057 -0.0028,-0.764135 -0.0079,-1.146176 -0.0081,-0.702674 -0.01913,-1.405534 -0.0047,-2.108199 0.02951,-0.791312 0.0999,-1.578756 0.208516,-2.363294 z" />
  <path
     style="fill:#ffffff;paint-order:stroke fill markers"
     id="path40"
     d="m 47.149441,30.051419 c 0.0079,0.663154 0.0071,1.326392 0.0072,1.989586 6.86e-4,0.577802 -0.002,1.155607 -0.0055,1.733398 -0.0013,0.193184 -6.99e-4,0.100883 -0.0017,0.276904 0,0 3.776255,0 3.776255,0 v 0 c -0.001,-0.176021 -4.49e-4,-0.08372 -0.0017,-0.276904 -0.0035,-0.577791 -0.0062,-1.155596 -0.0055,-1.733398 8.4e-5,-0.663194 -6.84e-4,-1.326432 0.0072,-1.989586 z" />
  <path
     style="fill:#ffffff;paint-order:stroke fill markers"
     id="path41"
     d="m 48.896881,30.488279 c 0.01024,0.699697 0.0077,1.399502 0.0064,2.09925 0.03262,0.410174 -0.03748,0.808321 -0.09972,1.210618 0,0 3.775581,0.05691 3.775581,0.05691 v 0 c 0.06267,-0.42087 0.119859,-0.840121 0.08752,-1.267528 -0.0013,-0.699748 -0.0038,-1.399553 0.0064,-2.09925 z" />
  <path
     style="fill:#ffffff;paint-order:stroke fill markers"
     id="path42"
     d="m 50.426484,30.946223 c -0.03199,0.59254 0.09906,1.171245 0.173944,1.75517 0.06344,0.362712 0.02957,0.734143 0.07732,1.09718 0,0 3.776128,-0.06354 3.776128,-0.06354 v 0 c -0.08135,-0.349318 -0.0075,-0.728723 -0.09085,-1.080321 -0.069,-0.569053 -0.201409,-1.131795 -0.161527,-1.708492 z" />
  <path
     style="fill:#ffffff;paint-order:stroke fill markers"
     id="path43"
     d="m 45.29397,32.714747 c -0.0025,0.654957 0.03073,1.311464 0.118081,1.960795 0.05689,0.338913 0.10775,0.678444 0.109226,1.022594 -5.64e-4,0.136549 -0.0061,0.272999 -0.009,0.409508 0,0 3.77797,0.0081 3.77797,0.0081 v 0 c 0.003,-0.140299 0.0067,-0.280583 0.0082,-0.420909 -0.0047,-0.361458 -0.05463,-0.718418 -0.119352,-1.073717 -0.09923,-0.629074 -0.125063,-1.270171 -0.111336,-1.906329 z" />
  <path
     style="fill:#ffffff;paint-order:stroke fill markers"
     id="path44"
     d="m 48.597878,28.773225 c -0.389744,0.695483 -0.808104,1.374517 -1.191568,2.073509 -0.131639,0.171214 -0.186246,0.380647 -0.284493,0.569197 -0.06618,0.127018 -0.128101,0.233609 -0.173008,0.370921 0,0 3.774441,0.135527 3.774441,0.135527 v 0 c 0.134193,-0.301654 0.287373,-0.596579 0.444283,-0.886806 0.382901,-0.698359 0.790882,-1.382734 1.199023,-2.066523 z" />
  <path
     style="fill:#ffffff;paint-order:stroke fill markers"
     id="path45"
     d="m 50.256081,28.726977 c -0.418501,0.706728 -0.951597,1.342321 -1.44922,1.994834 -0.495133,0.624573 -1.040501,1.208464 -1.534972,1.833161 0,0 3.758815,0.253839 3.758815,0.253839 v 0 c 0.500354,-0.619705 1.020904,-1.222891 1.521751,-1.842232 0.509079,-0.664714 1.043928,-1.315873 1.474516,-2.035617 z" />
  <path
     style="fill:#ffffff;paint-order:stroke fill markers"
     id="path46"
     d="m 48.799274,28.092874 c -0.08585,0.05211 -0.174729,0.09953 -0.257553,0.156333 -0.127781,0.08763 -0.246661,0.187719 -0.373627,0.276526 -0.764567,0.534784 -1.550516,1.038584 -2.349361,1.520158 -0.430572,0.243271 -0.869741,0.470606 -1.301333,0.711654 0,0 3.750066,0.400585 3.750066,0.400585 v 0 c 0.429464,-0.23674 0.853894,-0.482378 1.276991,-0.730302 1.024182,-0.636309 2.028406,-1.304441 3.015395,-1.997081 z" />
  <path
     style="fill:#ffffff;paint-order:stroke fill markers"
     id="path47"
     d="m 53.217712,28.856818 c -0.898478,0.457567 -1.823329,0.867432 -2.755671,1.251845 -0.455877,0.146414 -0.896396,0.3343 -1.344393,0.501093 -0.354483,0.131977 -0.719758,0.242738 -1.078781,0.362076 -0.432513,0.09636 -0.826585,0.288988 -1.200901,0.520345 -0.04466,0.02681 -0.08932,0.05361 -0.133983,0.08042 -0.04175,0.01657 -0.0867,0.02666 -0.12526,0.04969 -0.06746,0.0403 -0.138064,0.125962 -0.18985,0.182676 0,0 3.762757,0.327131 3.762757,0.327131 v 0 c 0.144368,-0.08489 0.299052,-0.15083 0.439766,-0.243253 0.376746,-0.195904 0.776652,-0.327483 1.18258,-0.449411 0.812434,-0.278128 1.616237,-0.580493 2.416578,-0.891479 0.940829,-0.403247 1.887298,-0.807729 2.779988,-1.309974 z" />
  <path
     style="fill:#ffffff;paint-order:stroke fill markers"
     id="path48"
     d="m 49.6908,27.937179 c -0.04984,0.07872 -0.09319,0.16195 -0.149509,0.236172 -0.124117,0.163562 -0.538654,0.61789 -0.652204,0.740644 -0.366504,0.396209 -0.747496,0.778042 -1.114601,1.173714 -0.111522,0.111248 -0.219961,0.225676 -0.334567,0.333744 -1.304982,1.23053 0.667663,-0.674371 -0.647569,0.596859 -0.200417,0.193713 -0.388103,0.400784 -0.595243,0.587291 -0.08782,0.07907 -0.184731,0.14743 -0.277097,0.221145 -0.208024,0.154489 -0.409216,0.312811 -0.630017,0.448359 0,0 3.7532,0.366782 3.7532,0.366782 v 0 c 0.212432,-0.158209 0.423807,-0.317945 0.625615,-0.489726 0.634989,-0.573686 1.241359,-1.181418 1.849722,-1.78275 0.665122,-0.708182 1.363906,-1.391974 1.939404,-2.177664 z" />
  <path
     style="fill:#ffffff;paint-order:stroke fill markers"
     id="path49"
     d="m 48.579484,27.479515 c -0.05912,0.07056 -0.114852,0.144103 -0.177356,0.211683 -0.320817,0.346868 -0.674519,0.663738 -1.005437,1.00068 -0.113704,0.115774 -0.6666,0.703552 -0.772362,0.815749 -0.651686,0.736031 -1.397019,1.386028 -2.046667,2.122936 -0.185495,0.222268 -0.102876,0.11953 -0.249686,0.306732 0,0 3.766136,0.254162 3.766136,0.254162 v 0 c 0.140399,-0.172444 0.06095,-0.0771 0.240039,-0.284592 0.663629,-0.717321 1.366194,-1.398227 2.030614,-2.114975 0.649658,-0.681947 1.324826,-1.337783 1.978017,-2.016197 z" />
  <path
     style="fill:#ffffff;paint-order:stroke fill markers"
     id="path50"
     d="m 48.418391,27.451833 c -0.735288,0.57958 -1.541633,1.055225 -2.31592,1.578239 -0.365984,0.247214 -0.726347,0.502652 -1.090406,0.75269 -0.354659,0.236539 -0.704244,0.48089 -1.058493,0.717804 -0.220001,0.147132 -0.311414,0.205126 -0.493981,0.395748 0,0 3.762516,0.309428 3.762516,0.309428 v 0 c 0.479552,-0.389949 1.030256,-0.687027 1.521657,-1.061263 1.136637,-0.789718 2.310195,-1.524759 3.422767,-2.348693 z" />
  <path
     style="fill:#ffffff;paint-order:stroke fill markers"
     id="path51"
     d="m 48.690059,27.109938 c -1.589682,1.349215 -3.300664,2.539254 -5.01933,3.71538 -0.431129,0.279075 -1.303644,0.853465 -1.774205,1.124108 -0.556608,0.320134 -1.147344,0.589115 -1.719877,0.880253 -0.05326,0.02004 -0.106518,0.04008 -0.159777,0.06012 0,0 3.748635,0.432945 3.748635,0.432945 v 0 c 0.05243,-0.02727 0.104852,-0.05455 0.157278,-0.08183 1.184213,-0.623294 2.353309,-1.271426 3.441001,-2.056882 1.731309,-1.196853 3.448132,-2.413686 5.086853,-3.736228 z" />
  <path
     style="fill:#ffffff;paint-order:stroke fill markers"
     id="path52"
     d="m 53.60992,33.019281 c -0.421999,0.119831 -0.822542,0.301053 -1.231598,0.458135 -1.025772,0.266449 -2.067096,0.447918 -3.118883,0.571789 -0.214851,0.01817 -0.429497,0.03894 -0.644552,0.0545 -0.172057,0.01244 -0.344676,0.01632 -0.516679,0.0295 -0.3316,0.0254 -0.66026,0.07888 -0.991795,0.10404 0,0 3.735345,0.553846 3.735345,0.553846 v 0 c 0.705816,-0.0867 1.41644,-0.118812 2.12254,-0.203248 1.063727,-0.146433 2.135582,-0.319038 3.156845,-0.659084 0.410346,-0.161398 0.823997,-0.312544 1.238984,-0.460969 z" />
  <path
     style="fill:#ffffff;paint-order:stroke fill markers"
     id="path53"
     d="m 55.248145,32.910066 c -0.05937,0.02674 -0.120859,0.0492 -0.178108,0.08022 -0.465104,0.252014 -0.901721,0.557712 -1.364036,0.815969 -0.676527,0.426668 -1.406676,0.746241 -2.147289,1.041742 -0.109726,0.04436 -0.217252,0.0946 -0.329177,0.133076 -0.529874,0.182146 -0.102945,-0.0049 -0.585255,0.175964 -0.07431,0.02787 -0.143962,0.0672 -0.218097,0.09554 -0.122087,0.04668 -0.248225,0.08217 -0.370709,0.12779 -0.348074,0.134044 -0.638342,0.171901 -1.008055,0.17032 -0.134008,0.04237 -0.270571,0.07158 -0.408964,0.09434 0,0 3.739972,0.523143 3.739972,0.523143 v 0 c 0.132093,-0.02663 0.264241,-0.05521 0.400106,-0.05004 0.353058,-0.04463 0.689514,-0.150662 1.021283,-0.277952 0.500116,-0.177545 1.003908,-0.346381 1.494527,-0.549084 0.742168,-0.314288 1.463744,-0.667031 2.151517,-1.089415 0.509008,-0.294912 0.999945,-0.633305 1.552493,-0.843114 z" />
  <text
     xml:space="preserve"
     style="font-size:16.8336px;line-height:0;font-family:sans-serif;-inkscape-font-specification:'sans-serif, Normal';text-align:start;writing-mode:lr-tb;direction:ltr;text-anchor:start;fill:#ffffff;stroke-width:1.57814;paint-order:stroke fill markers"
     x="26.34309"
     y="36.924793"
     id="text53"
     transform="scale(0.96597889,1.0352193)"><tspan
       sodipodi:role="line"
       id="tspan53"
       x="26.34309"
       y="36.924793"
       style="fill:#000000;stroke-width:1.57814">PA</tspan></text>
</svg>
