<?xml version="1.0" encoding="UTF-8" standalone="no"?>
<svg
   viewBox="0 0 96 64"
   width="96"
   height="64"
   version="1.1"
   id="svg2"
   sodipodi:docname="amplifier_lna.svg"
   inkscape:version="1.4.2 (f4327f4, 2025-05-13)"
   xmlns:inkscape="http://www.inkscape.org/namespaces/inkscape"
   xmlns:sodipodi="http://sodipodi.sourceforge.net/DTD/sodipodi-0.dtd"
   xmlns="http://www.w3.org/2000/svg"
   xmlns:svg="http://www.w3.org/2000/svg">
  <defs
     id="defs2" />
  <sodipodi:namedview
     id="namedview2"
     pagecolor="#ffffff"
     bordercolor="#000000"
     borderopacity="0.25"
     inkscape:showpageshadow="2"
     inkscape:pageopacity="0.0"
     inkscape:pagecheckerboard="0"
     inkscape:deskcolor="#d1d1d1"
     inkscape:zoom="9.15625"
     inkscape:cx="47.945392"
     inkscape:cy="32"
     inkscape:window-width="1440"
     inkscape:window-height="830"
     inkscape:window-x="-6"
     inkscape:window-y="-6"
     inkscape:window-maximized="1"
     inkscape:current-layer="svg2" />
  <g
     fill="none"
     stroke="#111"
     stroke-width="2.4"
     stroke-linecap="round"
     stroke-linejoin="round"
     id="g2">
    <line
       x1="8"
       y1="32"
       x2="24"
       y2="32"
       id="line1" />
    <polygon
       points="24,16 24,48 68,32"
       id="polygon1" />
    <line
       x1="68"
       y1="32"
       x2="88"
       y2="32"
       id="line2" />
    <text
       x="36"
       y="36"
       font-family="Arial"
       font-size="11"
       fill="#111"
       stroke="none"
       id="text2">LNA</text>
  </g>
  <path
     style="fill:#000000;stroke-width:0.109215;paint-order:stroke fill markers"
     d="m 36.860068,32.054608 v -3.877134 h 0.491468 0.491467 v 3.494881 3.49488 h 1.911263 1.911263 v 0.382253 0.382253 h -2.40273 -2.402731 z"
     id="path2" />
  <path
     style="fill:#ffffff;stroke-width:0.109215;paint-order:stroke fill markers"
     d="m 36.860068,32.054608 v -3.877134 h 0.491468 0.491467 v 3.494881 3.49488 h 1.911263 1.911263 v 0.382253 0.382253 h -2.40273 -2.402731 z"
     id="path3" />
  <path
     style="fill:#ffffff;stroke-width:0.109215;paint-order:stroke fill markers"
     d="m 25.283276,31.997698 v -14.19476 l 0.518772,0.195204 c 0.285324,0.107362 6.59836,2.404773 14.028969,5.105357 7.430609,2.700584 13.433999,4.937053 13.340867,4.969932 -0.140802,0.04971 -1.359842,3.067072 -2.987295,7.394146 l -0.215653,0.573379 h 0.626568 0.626567 l 0.421875,-1.201366 0.421876,-1.201365 h 1.605595 1.605595 l 0.252236,0.714491 c 0.138731,0.39297 0.233826,0.729762 0.211324,0.748427 -0.0225,0.01866 -6.503712,2.38191 -14.402688,5.251654 -7.898976,2.869746 -14.742662,5.357657 -15.208191,5.528691 l -0.846417,0.31097 z m 16.491468,3.55179 V 35.05802 h -1.911263 -1.911263 v -3.49488 -3.494881 h -0.600682 -0.600683 v 3.986349 3.986348 h 2.511946 2.511945 z m 2.209876,-2.527779 0.02903,-3.019246 2.010027,3.019246 2.010027,3.019247 h 0.58383 0.583829 V 32.054608 28.068259 H 48.65529 48.109215 v 3.030409 3.030408 l -2.021071,-3.030408 -2.021071,-3.030409 h -0.600089 -0.60009 v 3.986349 3.986348 h 0.544348 0.544347 z"
     id="path4" />
  <path
     style="fill:#ffffff;stroke-width:0.109215;paint-order:stroke fill markers"
     d="M 25.283276,31.997895 V 17.804343 l 0.846417,0.307006 c 16.458931,5.969873 27.192379,9.909549 27.069605,9.935809 -0.08616,0.01843 -0.239829,0.239589 -0.341487,0.491468 -0.266745,0.660911 -2.55912,6.607047 -2.734432,7.092773 l -0.147819,0.409557 h 0.623255 0.623256 l 0.421875,-1.201366 0.421876,-1.201365 h 1.605595 1.605595 l 0.252236,0.714491 c 0.138731,0.39297 0.233826,0.731244 0.211324,0.751721 -0.03357,0.03054 -25.285184,9.227055 -29.283234,10.664805 l -1.174062,0.422206 z m 16.491468,3.551593 V 35.05802 h -1.911263 -1.911263 v -3.49488 -3.494881 h -0.600682 -0.600683 v 3.986349 3.986348 h 2.511946 2.511945 z m 2.209876,-2.527779 0.02903,-3.019246 2.010027,3.019246 2.010027,3.019247 h 0.58383 0.583829 V 32.054608 28.068259 H 48.65529 48.109215 v 3.030409 3.030408 l -2.021071,-3.030408 -2.021071,-3.030409 h -0.600089 -0.60009 v 3.986349 3.986348 h 0.544348 0.544347 z"
     id="path5" />
  <path
     style="fill:#ffffff;stroke-width:0.109215;paint-order:stroke fill markers"
     d="M 25.283276,31.997895 V 17.804343 l 0.846417,0.307212 c 18.072514,6.559541 27.199376,9.908915 27.073424,9.935401 -0.160638,0.03378 -0.317743,0.412426 -2.183946,5.263624 l -1.02934,2.675768 0.492915,0.03384 c 0.271102,0.01861 0.553761,0.01049 0.628131,-0.01805 0.07437,-0.02854 0.320558,-0.572092 0.547083,-1.207897 l 0.411866,-1.15601 h 1.603593 1.603593 l 0.252236,0.714491 c 0.138731,0.39297 0.233826,0.731244 0.211324,0.751721 -0.03357,0.03054 -25.285184,9.227055 -29.283234,10.664805 l -1.174062,0.422206 z m 16.491468,3.551593 V 35.05802 h -1.911263 -1.911263 v -3.49488 -3.494881 h -0.600682 -0.600683 v 3.986349 3.986348 h 2.511946 2.511945 z m 2.209876,-2.527779 0.02903,-3.019246 2.010027,3.019246 2.010027,3.019247 h 0.58383 0.583829 V 32.054608 28.068259 H 48.658612 48.11586 l -0.03063,3.085325 c -0.01685,1.696928 0.0062,3.132013 0.05128,3.189078 0.04505,0.05707 0.08191,-1.306758 0.08191,-3.030717 v -3.134471 h 0.43686 0.43686 v 3.877134 3.877133 H 48.600894 48.10964 L 46.071311,32.87372 C 44.95023,31.191809 43.991772,29.8157 43.941405,29.8157 c -0.05037,0 -0.09158,1.376109 -0.09158,3.05802 v 3.058021 H 43.414327 42.97883 l -0.03007,-3.959045 -0.03007,-3.959044 -0.0259,4.013652 -0.0259,4.013652 h 0.544348 0.544347 z m 2.093686,-1.939606 c -1.065087,-1.597939 -1.956402,-2.885463 -1.980699,-2.861166 -0.0243,0.0243 0.827259,1.351581 1.892346,2.949519 1.065087,1.597939 1.956403,2.885464 1.9807,2.861166 0.0243,-0.0243 -0.827259,-1.35158 -1.892347,-2.949519 z"
     id="path6" />
  <path
     style="fill:#ffffff;stroke-width:0.109215;paint-order:stroke fill markers"
     d="m 25.283276,32 c 0,-13.500068 0.0097,-14.217493 0.191127,-14.145821 0.183746,0.07259 23.143087,8.441737 26.306088,9.58911 1.425222,0.516996 1.526926,0.571993 1.347397,0.728607 -0.171008,0.14918 -0.582741,1.166164 -2.655245,6.558479 l -0.482726,1.255973 0.492871,0.03384 c 0.27108,0.01861 0.552388,0.011 0.625132,-0.01692 0.07274,-0.02792 0.31778,-0.571469 0.544528,-1.207898 l 0.41227,-1.157145 h 1.606146 1.606148 l 0.252236,0.714491 c 0.138731,0.39297 0.233826,0.731598 0.211324,0.752506 -0.0225,0.02091 -6.798592,2.497227 -15.057978,5.502929 -8.259386,3.005703 -15.103072,5.498271 -15.208191,5.539042 C 25.292977,46.21756 25.283276,45.499545 25.283276,32 Z m 16.491468,3.549488 V 35.05802 h -1.911263 -1.911263 v -3.49488 -3.494881 h -0.600682 -0.600683 v 3.986349 3.986348 h 2.511946 2.511945 z m 2.159288,-1.883959 -0.02501,-2.375427 -0.03177,2.32082 -0.03177,2.320819 h -0.38008 c -0.209045,0 -0.390769,-0.01229 -0.403832,-0.0273 -0.01306,-0.01502 -0.05118,-1.74744 -0.0847,-3.849829 l -0.06095,-3.822526 -0.02451,3.904437 -0.02451,3.904437 h 0.546075 0.546075 z m 5.267333,-1.610921 V 28.068259 H 48.65529 48.109215 l 0.02556,3.19454 0.02556,3.194539 0.03072,-3.139932 0.03072,-3.139932 h 0.435185 0.435185 v 3.877134 3.877133 l -0.464164,-0.0039 -0.464163,-0.0039 -1.856656,-2.785751 c -2.113136,-3.170576 -2.293089,-3.414468 -2.420244,-3.280155 -0.05044,0.05327 -0.03651,0.116723 0.03095,0.140997 0.06746,0.02427 1.021115,1.393653 2.119241,3.043068 l 1.996596,2.998936 h 0.58383 0.583829 z m -2.85085,-0.563175 c -1.921617,-2.878528 -2.282256,-3.389594 -2.282256,-3.234214 0,0.11238 2.74587,4.312894 3.467366,5.304228 0.209715,0.288148 0.40359,0.501613 0.430835,0.474368 0.02725,-0.02725 -0.699931,-1.172217 -1.615945,-2.544382 z"
     id="path7" />
  <path
     style="fill:#ffffff;stroke-width:0.109215;paint-order:stroke fill markers"
     d="m 25.283276,32.002584 c 0,-8.504854 0.03997,-14.204109 0.09947,-14.182334 0.05471,0.02002 6.372933,2.320775 14.040491,5.112783 7.667558,2.792008 13.887693,5.094153 13.82252,5.115877 -0.196386,0.06546 -0.466427,0.689485 -1.804325,4.16952 -0.704343,1.832082 -1.324199,3.444082 -1.377457,3.582223 -0.09482,0.245936 -0.08396,0.250484 0.521226,0.21843 l 0.618057,-0.03274 0.431109,-1.174061 0.431109,-1.174062 h 1.617058 1.617059 l 0.23856,0.716875 c 0.131208,0.39428 0.221222,0.733619 0.200031,0.754086 -0.02119,0.02047 -6.796209,2.495514 -15.055595,5.500104 -8.259386,3.004589 -15.103072,5.496448 -15.208191,5.537461 -0.181428,0.07079 -0.191127,-0.646914 -0.191127,-14.144167 z m 18.650756,1.662945 -0.02501,-2.375427 -0.03177,2.32082 -0.03177,2.320819 h -0.38008 c -0.209045,0 -0.390528,-0.01229 -0.403299,-0.0273 -0.01277,-0.01502 -0.05107,-1.501707 -0.08511,-3.303754 l -0.0619,-3.276451 -0.0241,3.358362 -0.0241,3.358362 h 0.546075 0.546075 z m 5.267333,-1.610921 V 28.068259 H 48.65529 48.109215 l 0.02553,3.139932 0.02553,3.139932 0.03077,-3.085324 0.03078,-3.085325 h 0.435159 0.435159 v 3.877134 3.877133 l -0.464164,-0.0039 -0.464163,-0.0039 -1.856656,-2.785751 c -2.113136,-3.170576 -2.293089,-3.414468 -2.420244,-3.280155 -0.05044,0.05327 -0.03651,0.116723 0.03095,0.140997 0.06746,0.02427 1.021115,1.393653 2.119241,3.043068 l 1.996596,2.998936 h 0.58383 0.583829 z m -12.369649,1.883959 c -0.02133,-0.375427 -0.03878,-0.06826 -0.03878,0.682593 0,0.750854 0.01745,1.058021 0.03878,0.682594 0.02133,-0.375426 0.02133,-0.989761 0,-1.365187 z m 1.083618,0.764505 c -0.0303,-0.07509 -0.05509,-0.01365 -0.05509,0.136518 0,0.150171 0.02479,0.211605 0.05509,0.136519 0.0303,-0.07509 0.0303,-0.197952 0,-0.273037 z m 8.18242,-3.57955 c -1.008586,-1.500826 -1.88542,-2.760681 -1.948519,-2.799678 -0.161903,-0.100062 -0.152053,-0.08441 1.855565,2.947768 0.987552,1.491537 1.825068,2.682365 1.861148,2.646286 0.03608,-0.03608 -0.759608,-1.29355 -1.768194,-2.794376 z m -8.145536,-0.816355 v -2.238908 h -0.600682 -0.600683 l 0.0217,0.846417 0.0217,0.846416 0.03769,-0.791809 0.03769,-0.791809 h 0.486683 0.486682 v 2.184301 c 0,1.201365 0.02457,2.1843 0.05461,2.1843 0.03003,0 0.05461,-1.007508 0.05461,-2.238908 z"
     id="path8" />
  <path
     style="fill:#ffffff;stroke-width:0.109215;paint-order:stroke fill markers"
     d="m 25.283276,32 c 0,-11.970983 0.02359,-14.21227 0.149074,-14.164117 0.174237,0.06686 22.991441,8.37926 25.919127,9.442441 1.515616,0.550393 1.950096,0.748856 1.833551,0.837537 -0.08401,0.06392 -0.297222,0.460248 -0.473814,0.880726 -0.562446,1.339219 -2.636129,6.785225 -2.636129,6.923128 0,0.0912 0.176279,0.12234 0.564134,0.09964 l 0.564135,-0.03301 0.431063,-1.174061 0.431064,-1.174062 h 1.617058 1.617059 l 0.23856,0.716875 c 0.131208,0.39428 0.221222,0.73322 0.200031,0.7532 -0.03746,0.03532 -3.660237,1.357953 -21.553889,7.86907 -4.745392,1.726747 -8.689419,3.163032 -8.764505,3.191746 C 25.311012,46.210715 25.283276,43.33209 25.283276,32 Z m 18.65091,1.829352 -0.02486,-2.211605 -0.03208,2.163451 -0.03208,2.163451 -0.407227,-0.03376 -0.407225,-0.03376 -0.05749,-2.730375 -0.05749,-2.730376 -0.02442,2.812287 -0.02442,2.812287 h 0.546075 0.546075 z m 5.267179,-1.774744 V 28.068259 H 48.65529 48.109215 l 0.02531,2.75768 0.02531,2.757679 0.03121,-2.703072 0.03121,-2.703072 h 0.434952 0.434952 v 3.877134 3.877133 l -0.464164,-0.0044 -0.464163,-0.0044 -1.839271,-2.753311 c -2.002403,-2.997512 -2.320826,-3.435081 -2.424383,-3.331523 -0.0377,0.0377 0.02156,0.161269 0.131686,0.274602 0.110125,0.113334 1.059495,1.493539 2.10971,3.067122 l 1.909483,2.861061 h 0.575158 0.575159 z m -12.370543,2.102389 c -0.02299,-0.255291 -0.04181,-0.04642 -0.04181,0.464163 0,0.510581 0.01881,0.719454 0.04181,0.464164 0.02299,-0.25529 0.02299,-0.673037 0,-0.928327 z m 1.084512,0.546075 c -0.0303,-0.07509 -0.05509,-0.01365 -0.05509,0.136518 0,0.150171 0.02479,0.211605 0.05509,0.136519 0.0303,-0.07509 0.0303,-0.197952 0,-0.273037 z m 8.17068,-3.574375 c -1.006593,-1.50643 -1.879969,-2.769743 -1.940837,-2.807361 -0.156546,-0.09675 -0.142505,-0.07454 1.863427,2.947056 0.989002,1.489764 1.8228,2.684049 1.852883,2.653966 0.03008,-0.03008 -0.768879,-1.287231 -1.775473,-2.793661 z M 37.952218,30.25256 v -2.184301 h -0.600682 -0.600683 l 0.0217,0.846417 0.0217,0.846416 0.03769,-0.791809 0.03769,-0.791809 h 0.486683 0.486682 v 2.129693 c 0,1.171331 0.02457,2.129693 0.05461,2.129693 0.03003,0 0.05461,-0.982935 0.05461,-2.1843 z"
     id="path9" />
  <path
     style="fill:#ffffff;stroke-width:0.109215;paint-order:stroke fill markers"
     d="m 25.283276,32.011685 c 0,-7.815301 0.01472,-14.209637 0.03272,-14.209637 0.018,0 5.977039,2.166887 13.242322,4.815306 7.265281,2.648418 13.567295,4.943304 14.004474,5.099747 0.557518,0.199505 0.747265,0.311082 0.635444,0.373661 -0.189073,0.10581 -3.123148,7.480388 -3.123148,7.849798 0,0.06599 0.228693,0.09828 0.558046,0.0788 l 0.558047,-0.03301 0.261503,-0.709897 c 0.143827,-0.390444 0.339093,-0.918772 0.433922,-1.174062 l 0.172419,-0.464164 h 1.614558 1.614559 l 0.233063,0.6392 c 0.128185,0.35156 0.233064,0.687214 0.233064,0.745899 0,0.05868 -6.794539,2.579209 -15.098976,5.601164 -8.304437,3.021956 -15.160409,5.517498 -15.235495,5.545649 -0.108778,0.04078 -0.136519,-2.836254 -0.136519,-14.158452 z m 18.651219,2.090704 -0.02455,-1.938566 -0.03266,1.890396 -0.03266,1.890396 -0.406951,-0.03374 -0.406949,-0.03374 -0.05803,-2.238908 -0.05803,-2.238908 -0.02388,2.32082 -0.02388,2.320819 h 0.546075 0.546075 z m 5.26687,-2.047781 V 28.068259 H 48.65529 48.109215 l 0.02501,2.375427 0.02501,2.375427 0.03177,-2.320819 0.03177,-2.32082 h 0.434687 0.434688 v 3.877134 3.877133 l -0.464164,-0.0049 -0.464163,-0.0049 -1.885638,-2.807425 c -2.146489,-3.195795 -2.277623,-3.376817 -2.37538,-3.27906 -0.03915,0.03915 0.01892,0.162088 0.12905,0.273199 0.110125,0.111112 1.060295,1.490062 2.11149,3.064332 l 1.911263,2.862311 0.573378,0.0028 0.573379,0.0028 z m -12.372287,2.266211 c -0.02502,-0.165188 -0.0455,-0.03003 -0.0455,0.300341 0,0.330376 0.02047,0.465529 0.0455,0.300342 0.02502,-0.165188 0.02502,-0.435495 0,-0.600683 z m 10.884045,-0.709897 c -0.349482,-0.586569 -3.550927,-5.324233 -3.597816,-5.324233 -0.07326,0 -0.101864,-0.04681 1.034485,1.692833 1.24133,1.900362 2.525754,3.767918 2.591409,3.767918 0.02929,0 0.01666,-0.06143 -0.02808,-0.136518 z m -9.760905,-3.467577 v -2.075086 h -0.600682 -0.600683 l 0.02139,0.791809 0.02139,0.791809 0.03821,-0.737201 0.03821,-0.737202 h 0.486478 0.486477 v 2.020478 c 0,1.111263 0.02457,2.020478 0.05461,2.020478 0.03003,0 0.05461,-0.933788 0.05461,-2.075085 z"
     id="path10" />
  <path
     style="fill:#ffffff;stroke-width:0.109215;paint-order:stroke fill markers"
     d="m 25.283276,32 c 0,-7.808874 0.015,-14.197952 0.03333,-14.197952 0.02811,0 14.047459,5.098805 24.944302,9.072186 2.348074,0.856193 3.044033,1.150983 2.928572,1.240468 -0.0833,0.06456 -0.322215,0.535127 -0.530924,1.045708 -0.686142,1.678563 -2.583475,6.646773 -2.583475,6.764891 0,0.06575 0.232215,0.115655 0.538137,0.115655 h 0.538137 l 0.340625,-0.901024 c 0.187344,-0.495563 0.393466,-1.036178 0.458049,-1.201365 l 0.117423,-0.300342 h 1.610341 1.610342 l 0.233063,0.6392 c 0.128185,0.35156 0.233064,0.687722 0.233064,0.747027 0,0.05931 -1.363822,0.602998 -3.030717,1.208203 -1.666894,0.605207 -8.504641,3.094982 -15.194993,5.532836 -6.690352,2.437854 -12.182502,4.432461 -12.204778,4.432461 -0.02228,0 -0.0405,-6.389078 -0.0405,-14.197952 z m 18.651713,2.430034 -0.02406,-1.610921 -0.03355,1.556314 -0.03355,1.556314 h -0.431341 -0.431342 l -0.03251,-1.938567 -0.03251,-1.938566 -0.02462,1.993174 -0.02462,1.993174 h 0.546075 0.546075 z m 5.266376,-2.375426 V 28.068259 H 48.65529 48.109215 l 0.02448,1.883959 0.02448,1.883959 0.03277,-1.829351 0.03277,-1.829352 h 0.434219 0.434219 v 3.877134 3.877133 l -0.464164,-0.0051 -0.464163,-0.0051 -2.056383,-3.052926 c -1.862903,-2.765687 -2.257611,-3.280347 -2.257611,-2.94371 0,0.06007 0.04243,0.109215 0.09428,0.109215 0.05185,0 0.997929,1.349398 2.102389,2.998663 l 2.00811,2.998663 0.573378,0.0048 0.573379,0.0048 z m -12.375227,2.375426 c -0.02747,-0.105119 -0.04995,-0.01911 -0.04995,0.191126 0,0.210239 0.02248,0.296246 0.04995,0.191127 0.02747,-0.10512 0.02747,-0.277133 0,-0.382253 z m 10.887017,-0.819112 c -0.346034,-0.581023 -3.332544,-4.996588 -3.37949,-4.996588 -0.08074,0 -0.114582,-0.05312 1.721903,2.703072 0.890538,1.336519 1.646099,2.430034 1.679026,2.430034 0.03293,0 0.02328,-0.06143 -0.02144,-0.136518 z M 37.924449,29.13863 c -0.01986,-0.55867 -0.03621,-0.131121 -0.03632,0.950107 -1.15e-4,1.081229 0.01613,1.538322 0.03611,1.015763 0.01998,-0.522559 0.02007,-1.4072 2.08e-4,-1.96587 z m -1.094444,-0.658858 c -0.02431,-0.196298 -0.0447,-0.06203 -0.04531,0.298385 -6.13e-4,0.36041 0.01927,0.521017 0.0442,0.356905 0.02492,-0.164112 0.02542,-0.458993 0.0011,-0.65529 z"
     id="path11" />
  <path
     style="fill:#ffffff;stroke-width:0.109215;paint-order:stroke fill markers"
     d="m 25.283276,32 c 0,-7.808874 0.01959,-14.197952 0.04353,-14.197952 0.03476,0 21.53366,7.823223 26.74028,9.730509 0.705156,0.258312 1.231432,0.500973 1.169504,0.539246 -0.06193,0.03827 -0.312088,0.532315 -0.555913,1.097869 -0.527434,1.223394 -2.605589,6.62209 -2.605589,6.768883 0,0.05632 0.241438,0.102401 0.536528,0.102401 h 0.536526 l 0.280259,-0.737202 c 0.154143,-0.40546 0.347627,-0.933788 0.429967,-1.174061 l 0.149707,-0.43686 1.639027,-0.03006 1.639027,-0.03007 0.234069,0.641961 c 0.12874,0.353078 0.234071,0.69114 0.234071,0.75125 0,0.06011 -0.823208,0.407752 -1.829351,0.77254 -1.006144,0.364788 -7.84186,2.853906 -15.190481,5.531373 -7.348621,2.677469 -13.381386,4.868124 -13.406143,4.868124 -0.02476,0 -0.04501,-6.389078 -0.04501,-14.197952 z m 18.652284,2.703072 -0.02349,-1.337884 -0.03459,1.283276 -0.03459,1.283277 h -0.430312 -0.430312 l -0.03373,-1.501707 -0.03373,-1.501706 -0.02396,1.556314 -0.02396,1.556314 h 0.546075 0.546075 z m 5.265805,-2.648464 V 28.068259 H 48.65529 48.109215 l 0.02385,1.501707 0.02385,1.501706 0.03393,-1.447099 0.03393,-1.447099 h 0.433691 0.433689 v 3.877134 3.877133 H 48.620014 48.147877 L 46.23045,33.064846 c -1.794842,-2.683607 -2.380621,-3.460389 -2.380621,-3.156859 0,0.06938 0.04335,0.126143 0.09634,0.126143 0.05298,0 0.999059,1.349411 2.102389,2.998691 l 2.006054,2.998693 0.573378,0.0047 0.573379,0.0047 z m -12.378181,2.430034 c -0.0303,-0.07509 -0.05509,-0.01365 -0.05509,0.136518 0,0.150171 0.02479,0.211605 0.05509,0.136519 0.0303,-0.07509 0.0303,-0.197952 0,-0.273037 z m 10.89001,-0.87372 c -0.342182,-0.57482 -3.114171,-4.668942 -3.16118,-4.668942 -0.0821,0 -0.0889,-0.01068 1.616467,2.539249 0.833589,1.246416 1.540448,2.266211 1.570798,2.266211 0.03035,0 0.01861,-0.06143 -0.02609,-0.136518 z m -9.789363,-4.091576 c -0.02174,-0.347586 -0.03973,-0.09136 -0.03997,0.569391 -2.46e-4,0.660751 0.01754,0.945139 0.03953,0.631974 0.02199,-0.313165 0.02219,-0.85378 4.48e-4,-1.201365 z m -1.095734,-0.931042 c -0.02612,-0.135854 -0.04849,-0.05042 -0.0497,0.189853 -0.0012,0.240273 0.02016,0.351427 0.0475,0.247007 0.02734,-0.104419 0.02833,-0.301006 0.0022,-0.43686 z"
     id="path12" />
  <path
     style="fill:#ffffff;stroke-width:0.109215;paint-order:stroke fill markers"
     d="m 25.283276,32 c 0,-7.808874 0.0206,-14.197952 0.04577,-14.197952 0.03468,0 24.030914,8.733022 27.384229,9.966026 0.506096,0.186089 0.592115,0.252723 0.476061,0.368776 -0.279668,0.279668 -3.159325,7.633596 -3.055165,7.80213 0.03466,0.05609 0.276988,0.101976 0.538498,0.101976 h 0.475474 l 0.280259,-0.737202 c 0.154143,-0.40546 0.347627,-0.933788 0.429967,-1.174061 l 0.149707,-0.43686 1.638455,-0.03006 1.638454,-0.03006 0.234643,0.613158 c 0.129053,0.337237 0.234642,0.677993 0.234642,0.757236 0,0.07924 -0.282594,0.241976 -0.627986,0.361628 -0.345393,0.119653 -2.39727,0.865485 -4.559727,1.657403 -6.726526,2.463337 -25.188463,9.175816 -25.237074,9.175816 -0.02541,0 -0.0462,-6.389078 -0.0462,-14.197952 z m 18.652911,2.921502 -0.02286,-1.119454 -0.0357,1.064846 -0.03571,1.064847 h -0.429211 -0.42921 l -0.03511,-1.174062 -0.03511,-1.174061 -0.02319,1.228669 -0.0232,1.228669 h 0.546075 0.546075 z m 5.265178,-2.866894 V 28.068259 H 48.65529 48.109215 l 0.02303,1.174062 0.02303,1.174061 0.0354,-1.119454 0.0354,-1.119454 h 0.433038 0.43304 v 3.877134 3.877133 H 48.62244 48.152732 L 46.22198,33.056523 c -1.061914,-1.58137 -2.035431,-2.969766 -2.16337,-3.085324 -0.12794,-0.115559 0.12906,0.308609 0.57111,0.942594 0.44205,0.633987 1.393488,2.045845 2.114307,3.137466 l 1.310581,1.984763 0.573378,0.0025 0.573379,0.0025 z M 47.71484,33.610922 C 47.458169,33.170831 44.5856,28.94198 44.543327,28.94198 c -0.0281,0 -0.01527,0.06143 0.02852,0.136518 0.25667,0.440091 3.129239,4.668942 3.171512,4.668942 0.0281,0 0.01527,-0.06143 -0.02852,-0.136518 z m -9.799506,-3.713311 c -0.0303,-0.07509 -0.05509,-0.01365 -0.05509,0.136519 0,0.15017 0.02479,0.211604 0.05509,0.136518 0.0303,-0.07509 0.0303,-0.197952 0,-0.273037 z m -1.088796,-1.253894 c -0.02769,-0.106263 -0.05217,-0.04576 -0.05439,0.13444 -0.0022,0.180205 0.02043,0.267146 0.05035,0.193205 0.02992,-0.07394 0.03174,-0.221382 0.004,-0.327645 z"
     id="path13" />
  <path
     style="fill:#ffffff;stroke-width:0.109215;paint-order:stroke fill markers"
     d="m 25.283276,32 c 0,-7.808874 0.02149,-14.197952 0.04775,-14.197952 0.02626,0 4.019434,1.445184 8.87372,3.21152 18.964686,6.900709 19.332431,7.0366 19.07512,7.048736 -0.245334,0.01157 -3.298273,7.739535 -3.12569,7.91212 0.03659,0.03659 0.275205,0.06653 0.530249,0.06653 h 0.463717 l 0.280259,-0.737202 c 0.154143,-0.40546 0.347627,-0.933788 0.429967,-1.174061 l 0.149707,-0.43686 1.638455,-0.03006 1.638454,-0.03006 0.234643,0.613158 c 0.129053,0.337237 0.234642,0.675807 0.234642,0.752379 0,0.07966 -0.665779,0.382827 -1.556314,0.708672 -6.792848,2.485488 -28.814642,10.491032 -28.858918,10.491032 -0.03067,0 -0.05576,-6.389078 -0.05576,-14.197952 z m 18.65379,3.139932 -0.02198,-0.901024 -0.03722,0.846416 -0.03722,0.846417 h -0.427849 -0.427849 l -0.03679,-0.901024 -0.03679,-0.901024 -0.02223,0.955631 -0.02223,0.955632 h 0.546075 0.546075 z m 5.264299,-3.085324 V 28.068259 H 48.65529 48.109215 l 0.02223,0.955632 0.02223,0.955631 0.03679,-0.901024 0.03679,-0.901024 h 0.432444 0.432443 v 3.877134 3.877133 h -0.469621 -0.469623 l -1.820659,-2.703072 c -1.001363,-1.486689 -1.945145,-2.850512 -2.097294,-3.030717 -0.152148,-0.180205 0.645032,1.058722 1.77151,2.753169 l 2.048145,3.080813 0.573378,0.0045 0.573379,0.0045 z m -1.805346,1.064846 c -0.987643,-1.543 -2.933288,-4.325581 -2.615523,-3.740614 0.202673,0.373094 2.700485,4.040955 2.75189,4.040955 0.03073,0 -0.03063,-0.135153 -0.136367,-0.300341 z m -10.57056,-4.416382 c -0.03486,-0.08712 -0.06074,-0.06125 -0.06598,0.06598 -0.0047,0.11513 0.02107,0.179636 0.05736,0.143345 0.03629,-0.03629 0.04017,-0.13049 0.0086,-0.209329 z"
     id="path14" />
  <path
     style="fill:#ffffff;stroke-width:0.109215;paint-order:stroke fill markers"
     d="m 25.283276,32 c 0,-7.808874 0.02523,-14.197952 0.05606,-14.197952 0.06193,0 25.534823,9.267291 27.047986,9.840326 l 0.94705,0.358647 -0.192927,0.245266 c -0.331486,0.421416 -3.101045,7.540972 -2.998217,7.707352 0.02968,0.04802 0.26816,0.08732 0.529954,0.08732 0.531372,0 0.411288,0.181691 1.082738,-1.638226 l 0.261914,-0.709897 1.640893,-0.0301 1.640893,-0.0301 0.227324,0.607577 c 0.125028,0.334166 0.227323,0.672891 0.227323,0.752722 0,0.08289 -0.409904,0.295865 -0.955631,0.496526 -3.799253,1.396963 -29.416175,10.708495 -29.460102,10.708495 -0.03039,0 -0.05526,-6.389078 -0.05526,-14.197952 z m 18.654725,3.303754 -0.02104,-0.737201 -0.03877,0.682594 -0.03878,0.682594 H 43.413208 42.98701 l -0.03941,-0.627987 -0.03941,-0.627986 -0.02065,0.682594 -0.02065,0.682594 h 0.546075 0.546075 z m 5.248491,0.43686 c -0.01275,-0.257511 -0.02162,-0.265299 -0.0622,-0.05461 -0.04033,0.20938 -0.116778,0.245734 -0.516772,0.245734 h -0.469441 l -0.68565,-1.039816 c -0.377108,-0.571899 -0.70647,-1.018997 -0.731916,-0.993551 -0.02545,0.02545 0.264317,0.516774 0.643916,1.091839 l 0.690182,1.045572 0.573378,0.0026 c 0.55688,0.0025 0.572951,-0.0061 0.558506,-0.297757 z m -3.544419,-3.549488 c -0.582922,-0.855972 -1.131931,-1.630034 -1.22002,-1.720136 -0.08809,-0.0901 0.349172,0.608963 0.971691,1.553477 0.622519,0.944516 1.171529,1.718577 1.22002,1.720137 0.04849,0.0016 -0.388768,-0.697505 -0.971691,-1.553478 z m 0.664554,-0.703468 c -1.093841,-1.613015 -1.534557,-2.211518 -1.297401,-1.761902 0.202444,0.383801 2.39197,3.562153 2.429169,3.526218 0.02149,-0.02076 -0.487804,-0.814704 -1.131768,-1.764316 z M 49.201365,30.03413 V 28.068259 H 48.65529 48.109215 l 0.02104,0.737202 0.02104,0.737201 0.03878,-0.682594 0.03877,-0.682594 h 0.43165 0.431648 v 1.911263 c 0,1.051195 0.02457,1.911263 0.05461,1.911263 0.03003,0 0.05461,-0.884642 0.05461,-1.96587 z"
     id="path15" />
  <path
     style="fill:#ffffff;stroke-width:0.109215;paint-order:stroke fill markers"
     d="m 25.283276,32 c 0,-7.808874 0.02589,-14.197952 0.05753,-14.197952 0.04509,0 22.815658,8.277555 27.057902,9.836086 0.860998,0.316316 0.942683,0.369959 0.803462,0.527639 -0.337919,0.382722 -3.17171,7.605412 -3.056859,7.791243 0.08479,0.137194 0.876936,0.09531 0.994343,-0.05258 0.05961,-0.07509 0.281627,-0.603413 0.493371,-1.174062 l 0.384988,-1.037542 1.640802,-0.0301 1.640801,-0.0301 0.227324,0.607577 c 0.125028,0.334166 0.227323,0.672974 0.227323,0.752905 0,0.09017 -0.98444,0.506475 -2.593856,1.096894 -5.553133,2.037184 -27.766379,10.107944 -27.82021,10.107944 -0.03131,0 -0.05692,-6.389078 -0.05692,-14.197952 z m 18.655566,3.412969 -0.0202,-0.627986 -0.04011,0.573379 -0.04011,0.573379 H 43.41355 c -0.420484,0 -0.425306,-0.0048 -0.466679,-0.464164 l -0.04181,-0.464164 -0.01908,0.518771 -0.01908,0.518772 h 0.546075 0.546075 z m 5.24765,0.327645 c -0.01275,-0.257511 -0.02162,-0.265299 -0.0622,-0.05461 -0.04033,0.20938 -0.116778,0.245734 -0.516772,0.245734 h -0.469441 l -0.68565,-1.039816 c -0.377108,-0.571899 -0.70647,-1.018997 -0.731916,-0.993551 -0.02545,0.02545 0.264317,0.516774 0.643916,1.091839 l 0.690182,1.045572 0.573378,0.0026 c 0.55688,0.0025 0.572951,-0.0061 0.558506,-0.297757 z M 46.5117,33.501706 c -0.241951,-0.4058 -1.920771,-2.812286 -1.961917,-2.812286 -0.02669,0 0.395534,0.663481 0.938272,1.474403 0.542737,0.810921 1.013401,1.474402 1.045918,1.474402 0.03252,0 0.02249,-0.06143 -0.02227,-0.136519 z m 0.329304,-1.201365 c -0.358445,-0.613695 -1.874273,-2.728905 -1.624042,-2.266211 0.16245,0.300379 1.614442,2.40273 1.659449,2.40273 0.02438,0 0.0084,-0.06143 -0.03541,-0.136519 z m 2.331791,-1.852994 c -0.02213,-0.317372 -0.04047,-0.08557 -0.04076,0.51511 -2.84e-4,0.600683 0.01782,0.86035 0.04024,0.57704 0.02242,-0.28331 0.02265,-0.774778 5.17e-4,-1.09215 z M 48.18744,28.423208 c -0.02502,-0.165188 -0.0455,-0.03003 -0.0455,0.300341 0,0.330376 0.02047,0.465529 0.0455,0.300342 0.02502,-0.165188 0.02502,-0.435495 0,-0.600683 z m 0.979316,-0.156996 c -0.03486,-0.08713 -0.06074,-0.06125 -0.06598,0.06598 -0.0047,0.11513 0.02107,0.179636 0.05736,0.143344 0.03629,-0.03629 0.04017,-0.130489 0.0086,-0.209328 z"
     id="path16" />
  <path
     style="fill:#ffffff;stroke-width:0.109215;paint-order:stroke fill markers"
     d="m 25.283276,32.00736 c 0,-7.812922 0.02501,-14.205312 0.05559,-14.205312 0.05484,0 22.148338,8.026803 26.021828,9.454006 1.783613,0.657179 1.979927,0.753833 1.848809,0.910247 -0.342716,0.408835 -3.0252,7.209408 -3.0252,7.669418 0,0.16612 0.08203,0.205237 0.430415,0.205237 0.236727,0 0.470175,-0.0598 0.518771,-0.132883 0.0486,-0.07309 0.264906,-0.601415 0.480688,-1.174062 l 0.392332,-1.041178 1.646556,-0.0301 1.646557,-0.0301 0.227324,0.607577 c 0.125028,0.334166 0.227323,0.672097 0.227323,0.750956 0,0.08384 -0.578233,0.358009 -1.392491,0.660243 C 52.26294,36.43045 25.811824,46.049909 25.529013,46.137 l -0.245734,0.07567 z m 18.656687,3.514824 -0.01908,-0.518771 -0.04181,0.464164 c -0.04135,0.459119 -0.04641,0.464164 -0.465467,0.464164 -0.39613,0 -0.426523,-0.02307 -0.467709,-0.354949 -0.04337,-0.349469 -0.04432,-0.348625 -0.06153,0.05461 l -0.01748,0.409557 h 0.546075 0.546075 z m 5.246529,0.21843 c -0.01275,-0.257511 -0.02162,-0.265299 -0.0622,-0.05461 -0.04034,0.209445 -0.116753,0.245734 -0.517434,0.245734 -0.467171,0 -0.473691,-0.0055 -1.045995,-0.877195 -0.316743,-0.482456 -0.628766,-0.909869 -0.693385,-0.949806 -0.06462,-0.03994 -0.02054,0.07714 0.09796,0.260172 0.118498,0.183033 0.412037,0.634589 0.65231,1.003459 l 0.436861,0.670674 0.573378,9.55e-4 c 0.556514,9.27e-4 0.572941,-0.0079 0.558506,-0.299386 z m -2.676478,-2.238908 c -0.278782,-0.458093 -1.701803,-2.484641 -1.74469,-2.484641 -0.02852,0 0.347868,0.589761 0.836415,1.31058 0.488548,0.720819 0.911463,1.31058 0.939812,1.31058 0.02835,0 0.01416,-0.06143 -0.03154,-0.136519 z m 2.661841,-2.891762 c -0.02364,-0.226595 -0.04338,-0.06796 -0.04387,0.352513 -4.85e-4,0.420478 0.01886,0.605875 0.04299,0.411992 0.02413,-0.193882 0.02452,-0.537909 8.81e-4,-0.764505 z m -3.205297,0.407121 c -0.159005,-0.240273 -0.310043,-0.43686 -0.335639,-0.43686 -0.05532,0 0.03659,0.165025 0.31934,0.573379 0.325358,0.469892 0.339457,0.351805 0.0163,-0.136519 z m 2.2199,-2.537976 c -0.02612,-0.135854 -0.04849,-0.05042 -0.0497,0.189853 -0.0012,0.240273 0.02016,0.351427 0.0475,0.247007 0.02734,-0.104419 0.02833,-0.301006 0.0022,-0.43686 z m 0.980298,-0.212877 c -0.03486,-0.08713 -0.06074,-0.06125 -0.06598,0.06598 -0.0047,0.11513 0.02107,0.179636 0.05736,0.143344 0.03629,-0.03629 0.04017,-0.130489 0.0086,-0.209328 z"
     id="path17" />
  <path
     style="fill:#ffffff;stroke-width:0.109215;paint-order:stroke fill markers"
     d="M 25.283276,32 V 17.787328 l 0.245734,0.07523 c 0.260576,0.07977 21.905865,7.950957 27.50848,10.003301 l 0.286638,0.105001 -0.307262,0.567472 c -0.291877,0.539058 -1.745763,4.159216 -2.50017,6.225391 -0.19312,0.528921 -0.323882,1.032675 -0.290582,1.119454 0.07534,0.196335 0.783325,0.212924 0.907372,0.02126 0.0486,-0.07509 0.265159,-0.603413 0.48125,-1.174062 l 0.392894,-1.037542 h 1.672764 1.672765 l 0.192089,0.546075 c 0.302111,0.858847 0.296489,0.870406 -0.582791,1.198248 C 53.415847,36.013814 25.7706,46.064494 25.52901,46.137953 l -0.245734,0.07472 z m 18.657409,3.576792 -0.01836,-0.464164 -0.04284,0.409556 c -0.04135,0.395335 -0.05752,0.409557 -0.465512,0.409557 -0.351492,0 -0.430642,-0.04138 -0.470002,-0.245734 -0.04058,-0.210692 -0.04945,-0.202904 -0.0622,0.05461 -0.01434,0.289583 0.0047,0.300342 0.531202,0.300342 h 0.546075 z m 5.248011,0.21843 c -0.0095,-0.18492 -0.02503,-0.198434 -0.06262,-0.05461 -0.03768,0.144177 -0.163867,0.191127 -0.513709,0.191127 -0.45971,0 -0.469276,-0.0081 -1.094352,-0.928328 -0.346823,-0.51058 -0.655394,-0.928328 -0.685711,-0.928328 -0.03032,0 0.03571,0.140088 0.146728,0.311307 0.111018,0.171218 0.398438,0.613109 0.638711,0.981979 l 0.436861,0.670674 0.573378,9.55e-4 c 0.525822,8.76e-4 0.572329,-0.01943 0.56071,-0.244778 z m -3.602989,-3.658703 c -0.533548,-0.800298 -0.901949,-1.277879 -0.695043,-0.901024 0.1993,0.362999 1.153768,1.74744 1.20473,1.74744 0.03003,0 -0.199325,-0.380887 -0.509687,-0.846416 z m 3.584814,-1.418294 c -0.0251,-0.166013 -0.04631,-0.05611 -0.04713,0.244232 -8.19e-4,0.300342 0.01972,0.436171 0.04564,0.301843 0.02592,-0.134328 0.0266,-0.380061 0.0015,-0.546075 z M 48.1849,28.534502 c -0.02769,-0.106263 -0.05217,-0.04576 -0.05439,0.13444 -0.0022,0.180205 0.02043,0.267146 0.05035,0.193205 0.02992,-0.07394 0.03174,-0.221382 0.004,-0.327645 z m 0.981856,-0.26829 c -0.03486,-0.08713 -0.06074,-0.06125 -0.06598,0.06598 -0.0047,0.11513 0.02107,0.179636 0.05736,0.143344 0.03629,-0.03629 0.04017,-0.130489 0.0086,-0.209328 z"
     id="path18" />
  <path
     style="fill:#ffffff;stroke-width:0.109215;paint-order:stroke fill markers"
     d="m 25.283276,32 c 0,-13.493529 0.0098,-14.220705 0.191127,-14.170359 0.179684,0.04989 25.395724,9.22857 27.070868,9.853838 l 0.777353,0.290156 -0.303828,0.566084 c -0.319038,0.594421 -1.91173,4.57014 -2.498969,6.23799 -0.188937,0.536615 -0.317545,1.04336 -0.285796,1.1261 0.0384,0.100057 0.195177,0.139068 0.468163,0.116488 l 0.410434,-0.03395 0.454131,-1.146758 0.454132,-1.146757 h 1.666134 1.666134 l 0.192089,0.546075 C 55.838911,35.07374 55.82574,35.109535 55.12628,35.377541 54.155934,35.74934 25.690728,46.110175 25.474403,46.170303 25.293084,46.220702 25.283276,45.49355 25.283276,32 Z m 18.65829,3.631399 c -0.01721,-0.403232 -0.01816,-0.404076 -0.06153,-0.05461 -0.04115,0.331603 -0.0718,0.354949 -0.46598,0.354949 -0.310003,0 -0.435182,-0.0507 -0.471879,-0.191127 -0.03759,-0.143826 -0.05308,-0.130312 -0.06262,0.05461 -0.01154,0.22376 0.03616,0.245734 0.533406,0.245734 h 0.546075 z m 5.225202,0.136519 c 0.01718,-0.170185 0.0096,-0.176216 -0.03429,-0.0273 -0.04222,0.143207 -0.172724,0.191127 -0.520527,0.191127 -0.452142,0 -0.47773,-0.01983 -0.986544,-0.764506 -0.2873,-0.420477 -0.547362,-0.764505 -0.577915,-0.764505 -0.03055,0 0.03229,0.135154 0.139657,0.300342 0.107362,0.165187 0.346463,0.534546 0.531332,0.820796 0.333679,0.516667 0.340093,0.520245 0.881177,0.491468 0.453762,-0.02413 0.548747,-0.06557 0.567109,-0.247418 z m -3.638453,-3.71331 c -0.219357,-0.330376 -0.419347,-0.600683 -0.444421,-0.600683 -0.05685,0 0.02938,0.148527 0.427994,0.737201 0.172867,0.25529 0.33702,0.464164 0.364782,0.464164 0.02776,0 -0.128998,-0.270307 -0.348355,-0.600682 z m 3.63912,-1.228669 c -0.02747,-0.10512 -0.04995,-0.01911 -0.04995,0.191126 0,0.210239 0.02248,0.296246 0.04995,0.191126 0.02747,-0.105119 0.02747,-0.277133 0,-0.382252 z m -0.983614,-2.232082 c -0.03486,-0.08713 -0.06074,-0.06125 -0.06598,0.06598 -0.0047,0.11513 0.02107,0.179636 0.05736,0.143345 0.03629,-0.03629 0.04017,-0.13049 0.0086,-0.209329 z m 0.982935,-0.327645 c -0.03486,-0.08713 -0.06074,-0.06125 -0.06598,0.06598 -0.0047,0.11513 0.02107,0.179636 0.05736,0.143344 0.03629,-0.03629 0.04017,-0.130489 0.0086,-0.209328 z"
     id="path19" />
  <path
     style="fill:#ffffff;stroke-width:0.109215;paint-order:stroke fill markers"
     d="m 25.283276,32 c 0,-13.493774 0.0098,-14.220673 0.191127,-14.169716 0.19495,0.05479 21.278058,7.724578 25.146757,9.1481 1.171331,0.431001 2.259703,0.830983 2.418602,0.888848 l 0.28891,0.10521 -0.255343,0.457465 c -0.576706,1.033212 -2.935484,7.223242 -2.843669,7.462507 0.06244,0.162709 0.58084,0.19829 0.806199,0.05533 0.07791,-0.04942 0.330427,-0.576999 0.561142,-1.172389 l 0.419481,-1.082526 h 1.668339 1.668338 l 0.192089,0.546075 c 0.312065,0.887146 0.336538,0.854456 -1.019651,1.36206 -1.866618,0.698651 -28.83243,10.509868 -29.051194,10.56996 C 25.293087,46.220733 25.283276,45.493312 25.283276,32 Z m 18.659405,3.686007 c -0.01523,-0.330368 -0.01951,-0.33415 -0.06186,-0.05461 -0.04056,0.267764 -0.09111,0.300342 -0.466003,0.300342 -0.234214,0 -0.444908,-0.06048 -0.475591,-0.136519 -0.03291,-0.08156 -0.05856,-0.05957 -0.06371,0.05461 -0.0071,0.157692 0.08691,0.191127 0.537452,0.191127 h 0.546075 z m 5.214652,0.161092 c 0.01521,-0.07659 0.0027,-0.08887 -0.02787,-0.0273 -0.03054,0.06157 -0.2659,0.111946 -0.523031,0.111946 -0.422165,0 -0.496879,-0.04238 -0.770258,-0.43686 -0.166509,-0.240273 -0.323534,-0.436861 -0.348944,-0.436861 -0.06335,0 0.05853,0.205991 0.374873,0.63357 0.243267,0.328803 0.310781,0.357638 0.767159,0.327645 0.296263,-0.01947 0.511699,-0.0897 0.528068,-0.172136 z m -1.877274,-1.171331 c -0.0984,-0.150171 -0.200722,-0.273038 -0.227393,-0.273038 -0.05352,0 0.04947,0.19785 0.213206,0.409557 0.188052,0.243151 0.198306,0.144481 0.01419,-0.136519 z m 1.884422,-3.795222 c -0.0303,-0.07508 -0.05509,-0.01365 -0.05509,0.136519 0,0.15017 0.02479,0.211604 0.05509,0.136519 0.0303,-0.07509 0.0303,-0.197953 0,-0.273038 z"
     id="path20" />
  <path
     style="fill:#ffffff;stroke-width:0.109215;paint-order:stroke fill markers"
     d="m 25.283276,32 c 0,-13.493142 0.0098,-14.220755 0.191127,-14.171374 0.222875,0.0607 22.404774,8.128019 25.654035,9.330097 l 2.200109,0.81394 -0.251751,0.457355 c -0.277234,0.503645 -1.994742,4.780096 -2.56707,6.391786 -0.383859,1.08096 -0.365443,1.215806 0.166042,1.215806 0.379876,0 0.489627,-0.152119 0.910206,-1.261581 l 0.41062,-1.083196 h 1.678283 1.678282 l 0.192089,0.546075 c 0.105649,0.300341 0.195898,0.627102 0.200554,0.726133 0.0064,0.13648 -0.526817,0.378136 -2.20314,0.998445 C 50.230211,37.189232 25.694993,46.112852 25.474403,46.172097 25.293093,46.220791 25.283276,45.492867 25.283276,32 Z m 18.660895,3.740614 c -0.01275,-0.257511 -0.02162,-0.265299 -0.0622,-0.05461 -0.0393,0.20405 -0.118603,0.245734 -0.467494,0.245734 -0.23394,0 -0.444577,-0.06051 -0.475249,-0.136519 -0.03291,-0.08156 -0.05856,-0.05957 -0.06371,0.05461 -0.0071,0.157692 0.08691,0.191127 0.537452,0.191127 0.526514,0 0.545542,-0.01076 0.531202,-0.300342 z m 4.656512,0.223157 c -0.306708,-0.02841 -0.513642,-0.128689 -0.694581,-0.33659 -0.141745,-0.162868 -0.220276,-0.222403 -0.174513,-0.1323 0.213327,0.420018 0.418016,0.545806 0.858717,0.527716 l 0.447237,-0.01836 z"
     id="path21" />
  <path
     style="fill:#ffffff;stroke-width:0.109215;paint-order:stroke fill markers"
     d="m 25.283276,32 c 0,-13.492659 0.0098,-14.220819 0.191127,-14.172642 0.21486,0.05709 26.835008,9.740883 27.455876,9.987809 l 0.397858,0.158232 -0.252659,0.456986 c -0.291255,0.526799 -2.187965,5.280939 -2.617819,6.561616 -0.306559,0.913337 -0.278967,1.045609 0.218109,1.045609 0.379876,0 0.489627,-0.152119 0.910206,-1.261581 l 0.41062,-1.083196 h 1.678283 1.678282 l 0.192089,0.546075 c 0.306812,0.872212 0.31507,0.858963 -0.801221,1.285287 C 53.419282,36.03013 25.722902,46.105951 25.474403,46.172354 25.293095,46.220804 25.283276,45.492768 25.283276,32 Z m 18.663099,3.795222 c -0.01033,-0.200258 -0.02228,-0.208475 -0.06458,-0.0444 -0.04239,0.164421 -0.13827,0.194454 -0.522981,0.163823 -0.259089,-0.02063 -0.448287,-6.48e-4 -0.420441,0.0444 0.02785,0.04505 0.268889,0.08191 0.535651,0.08191 0.433928,0 0.483687,-0.02589 0.472352,-0.245734 z m 4.655692,0.164628 c -0.239511,-0.02441 -0.509819,-0.102157 -0.600682,-0.172766 -0.144137,-0.112007 -0.146091,-0.104004 -0.01532,0.06274 0.104916,0.133778 0.285156,0.185618 0.600682,0.172768 l 0.450792,-0.01836 z"
     id="path22" />
  <path
     style="fill:#ffffff;stroke-width:0.109215;paint-order:stroke fill markers"
     d="m 25.283276,32 c 0,-13.492939 0.0098,-14.220782 0.191127,-14.171907 0.285699,0.07701 25.044991,9.082007 27.24704,9.909791 0.601583,0.226145 0.619951,0.244542 0.473192,0.473953 -0.310126,0.484781 -1.906494,4.444483 -2.692409,6.678366 -0.328143,0.932717 -0.295262,1.150753 0.173542,1.150753 0.343656,0 0.489577,-0.210942 0.935171,-1.351862 l 0.389096,-0.996261 1.656037,-0.03014 1.656037,-0.03013 0.175222,0.412386 c 0.09637,0.226813 0.200869,0.563376 0.232217,0.747916 0.05484,0.322853 0.03285,0.344868 -0.582129,0.582714 C 53.61362,35.964917 25.847334,46.070675 25.474403,46.171669 25.293091,46.220771 25.283276,45.493029 25.283276,32 Z m 18.663099,3.795222 c -0.009,-0.175381 -0.02664,-0.192717 -0.06147,-0.06055 -0.03357,0.127386 -0.191528,0.198126 -0.506103,0.226654 l -0.4573,0.04147 0.518771,0.01908 c 0.47417,0.01744 0.517682,-0.002 0.506102,-0.226653 z m 4.600138,0.164724 c -0.209998,-0.02533 -0.455731,-0.10347 -0.546075,-0.173647 -0.143077,-0.111142 -0.144931,-0.102948 -0.01437,0.06353 0.09959,0.126989 0.282841,0.185262 0.546075,0.173648 l 0.396184,-0.01748 z"
     id="path23" />
  <path
     style="fill:#ffffff;stroke-width:0.109215;paint-order:stroke fill markers"
     d="m 25.283276,32 c 0,-7.808874 0.04075,-14.197952 0.09056,-14.197952 0.07788,0 25.648524,9.287735 27.329525,9.926592 l 0.607797,0.230991 -0.35052,0.736909 c -0.441885,0.928982 -1.889896,4.582729 -2.355333,5.943182 -0.360512,1.053754 -0.362606,1.401234 -0.0084,1.401234 0.371996,0 0.579403,-0.273231 0.996792,-1.313137 l 0.415414,-1.034986 1.651522,-0.03014 1.651522,-0.03013 0.175222,0.412386 c 0.09637,0.226813 0.200919,0.563682 0.232327,0.748599 0.05707,0.335999 0.05642,0.336475 -1.018989,0.748525 -1.829692,0.701055 -29.224063,10.655877 -29.323586,10.655877 -0.05178,0 -0.09381,-6.360154 -0.09381,-14.197952 z m 18.674096,3.849829 c -0.0011,-0.126355 -0.02934,-0.147618 -0.08333,-0.06274 -0.04491,0.07061 -0.277605,0.148357 -0.517099,0.172768 -0.431293,0.04396 -0.430498,0.04456 0.08333,0.06274 0.428808,0.01517 0.518481,-0.01479 0.517099,-0.172768 z m 4.7273,0.119488 c -0.07394,-0.02992 -0.221382,-0.03174 -0.327645,-0.004 -0.106263,0.02769 -0.04576,0.05217 0.134441,0.05439 0.180204,0.0022 0.267146,-0.02043 0.193204,-0.05035 z"
     id="path24" />
  <path
     style="fill:#ffffff;stroke-width:0.109215;paint-order:stroke fill markers"
     d="m 25.283276,32 c 0,-7.808874 0.04182,-14.197952 0.09294,-14.197952 0.09342,0 26.651289,9.646986 27.501603,9.989793 l 0.454615,0.183279 -0.321237,0.647457 c -0.398426,0.803034 -1.953726,4.695472 -2.415603,6.045515 -0.351351,1.026981 -0.351033,1.372864 0.0013,1.372864 0.371275,0 0.574644,-0.269277 0.990488,-1.311489 l 0.41362,-1.036634 1.662594,-0.03017 1.662594,-0.03017 0.169745,0.406255 c 0.09336,0.22344 0.195205,0.563161 0.226326,0.754935 0.055,0.338928 0.03868,0.355502 -0.583675,0.592618 -1.70288,0.648795 -29.676928,10.811655 -29.759908,10.811655 -0.05386,0 -0.09537,-6.179952 -0.09537,-14.197952 z m 18.674096,3.849829 c -0.0011,-0.125369 -0.02961,-0.147214 -0.08287,-0.06349 -0.04466,0.0702 -0.252777,0.14834 -0.462491,0.173648 -0.363399,0.04385 -0.359509,0.04683 0.08287,0.06349 0.376466,0.01418 0.463848,-0.01863 0.462491,-0.173648 z m 4.668339,0.125142 c -0.03629,-0.03629 -0.130489,-0.04017 -0.209329,-0.0086 -0.08712,0.03486 -0.06124,0.06074 0.06599,0.06598 0.11513,0.0047 0.179635,-0.02107 0.143344,-0.05736 z"
     id="path25" />
  <path
     style="fill:#ffffff;stroke-width:0.109215;paint-order:stroke fill markers"
     d="m 25.283276,32 c 0,-7.808874 0.04036,-14.197952 0.08969,-14.197952 0.122924,0 26.3269,9.518463 27.510731,9.993135 l 0.460491,0.18464 -0.320906,0.635713 c -0.654119,1.295799 -2.72977,6.694975 -2.72977,7.100664 0,0.279972 0.266198,0.387814 0.591461,0.239615 0.177968,-0.08109 0.374339,-0.423122 0.682301,-1.188419 l 0.432415,-1.074563 1.663231,-0.03017 1.663232,-0.03017 0.169745,0.406255 c 0.09336,0.22344 0.195082,0.562394 0.226049,0.753232 0.05593,0.344683 0.05063,0.349146 -0.802104,0.674711 -2.471871,0.943733 -29.421526,10.731265 -29.548195,10.731265 -0.04861,0 -0.08837,-6.389078 -0.08837,-14.197952 z m 18.648369,3.822526 c 0.02973,-0.110629 0.01462,-0.122695 -0.04655,-0.03716 -0.04982,0.06967 -0.237862,0.150306 -0.417871,0.179204 -0.299825,0.04813 -0.295918,0.05125 0.04655,0.03716 0.230122,-0.0095 0.390768,-0.07836 0.417871,-0.179204 z m 4.694066,0.152445 c -0.03629,-0.03629 -0.130489,-0.04017 -0.209329,-0.0086 -0.08712,0.03486 -0.06124,0.06074 0.06599,0.06598 0.11513,0.0047 0.179635,-0.02107 0.143344,-0.05736 z"
     id="path26" />
  <path
     style="fill:#ffffff;stroke-width:0.109215;paint-order:stroke fill markers"
     d="m 25.283276,32 c 0,-9.196991 0.03769,-14.197952 0.107005,-14.197952 0.05885,0 0.2923,0.07172 0.518772,0.159387 0.226471,0.08766 4.269787,1.557666 8.985145,3.266673 7.087577,2.568779 17.203439,6.253163 18.214068,6.633899 l 0.248198,0.09351 -0.315491,0.629752 c -0.673402,1.344181 -2.747458,6.715916 -2.747458,7.115824 0,0.23745 0.267218,0.373766 0.55416,0.282695 0.202809,-0.06437 0.446879,-0.511816 0.892213,-1.63566 l 0.259664,-0.65529 1.663301,-0.03017 1.663302,-0.03017 0.169745,0.406255 c 0.285305,0.682834 0.312217,1.084078 0.07891,1.176508 -1.60616,0.636306 -30.045811,10.9827 -30.188697,10.9827 -0.06377,0 -0.102834,-5.392876 -0.102834,-14.197952 z m 18.648356,3.822526 c 0.02944,-0.10951 0.01413,-0.122212 -0.04618,-0.03832 -0.04962,0.06903 -0.213093,0.150546 -0.363264,0.181148 -0.235139,0.04792 -0.228728,0.05323 0.04618,0.03831 0.180087,-0.0098 0.338418,-0.08873 0.363263,-0.181147 z"
     id="path27" />
  <path
     style="fill:#ffffff;paint-order:stroke fill markers"
     id="path28"
     d="m 49.912005,30.311494 c 0.483827,0.130612 0.954341,0.309261 1.443694,0.418485 0.305171,0.0346 0.606875,0.0895 0.910437,0.135623 0.251346,-0.05536 0.254228,0.08436 0.459846,0.152839 0.06061,0.01582 0.106852,0.06621 0.161038,0.09173 0.0095,0.0045 0.02495,-0.0062 0.03158,0.002 0.04657,0.05755 0.06726,0.131972 0.104245,0.196102 0.129449,0.151342 0.147006,0.323212 0.147831,0.514009 0.01097,0.245666 -0.04808,0.407308 -0.175394,0.61312 -0.02214,0.0452 -0.03384,0.09722 -0.06641,0.135593 -0.03031,0.03571 -0.301584,0.209731 -0.315377,0.219358 -0.146466,0.102224 -0.279878,0.22308 -0.430645,0.318847 -0.06657,0.04228 -0.140167,0.07231 -0.210251,0.108458 -0.450681,0.182659 -0.908678,0.338083 -1.380824,0.454184 -1.340027,0.43724 -0.110292,0.0147 3.391561,0.01157 0.0264,-2.4e-5 -0.04008,0.06298 -0.06236,0.04882 -0.02593,-0.01648 -0.01053,-0.06168 -0.0056,-0.09202 0.01002,-0.06172 0.03016,-0.121504 0.04988,-0.180844 0.02693,-0.08101 0.05996,-0.159864 0.08995,-0.239797 0.121731,-0.392413 0.355842,-0.72635 0.552355,-1.081298 0.149135,-0.247804 0.284802,-0.503003 0.406729,-0.765683 0.191216,-0.324554 0.303248,-0.686043 0.444481,-1.033403 0.664832,-1.482906 -3.670735,-1.726395 -3.712537,-0.257994 -0.04722,0.398916 -0.08316,0.798224 -0.185465,1.188444 -0.07933,0.302612 -0.181279,0.598867 -0.26712,0.899697 -0.193225,0.64855 -0.345687,1.310003 -0.553639,1.954123 -0.06715,0.171114 -0.170232,0.321825 -0.25083,0.485518 -0.04485,0.09109 -0.01117,0.09524 -0.0635,0.07509 8.905673,0.216683 3.257916,1.191695 3.785732,-0.3289 0.01834,-0.05283 0.105669,-0.200607 0.127476,-0.23907 0.118565,-0.10663 0.199077,-0.248129 0.31514,-0.357015 0.04181,-0.03923 0.09552,-0.06492 0.135281,-0.106235 0.310314,-0.322423 -0.05395,-0.02892 0.25593,-0.26268 0.262239,-0.210433 0.541252,-0.397301 0.802223,-0.609081 0.217795,-0.235869 0.446732,-0.479123 0.710874,-0.664219 0.262098,-0.191127 0.540745,-0.354826 0.777941,-0.578187 0.04487,-0.04553 0.12206,-0.14009 0.194054,-0.157192 0.02511,-0.006 0.101225,0.01713 0.07542,0.01751 -1.231717,0.0183 -2.463654,0.05395 -3.69538,0.03627 -0.03036,-4.36e-4 0.0056,-0.06191 0.01924,-0.08904 0.0042,-0.0083 0.0087,0.01653 0.01307,0.0248 -0.01016,0.350538 -0.191851,0.644411 -0.318971,0.960707 -0.06325,0.188457 -0.09915,0.397828 -0.20846,0.568423 -0.02335,0.03644 -0.06179,0.06123 -0.08689,0.09649 -0.174274,0.244803 0.01476,0.04136 -0.153199,0.21046 -0.108815,0.05587 -0.141214,0.181605 -0.225909,0.260656 -0.0221,0.02063 -0.05521,0.02665 -0.07756,0.04701 -0.113243,0.103128 -0.01787,0.08075 -0.116808,0.09224 1.234078,-0.03336 2.467709,-0.09736 3.702235,-0.100072 0.032,-7e-5 0.0045,0.09043 -0.02743,0.092 -0.03129,0.0015 -0.02415,-0.05835 -0.02959,-0.08921 -0.01083,-0.06149 -0.01445,-0.12408 -0.01896,-0.186357 -0.0093,-0.128629 -0.0085,-0.241446 -0.0098,-0.370286 0.0039,-0.303667 0.013,-0.607223 0.01471,-0.910924 -0.0059,-0.247124 -0.125196,-0.465149 -0.199777,-0.694785 0,0 -3.775219,0.105461 -3.775219,0.105461 v 0 c 0.05244,0.203247 0.156199,0.383645 0.199913,0.586444 -0.0029,0.305932 -0.01014,0.611782 -0.01219,0.917717 0.02239,2.15118 0.374831,1.122741 3.920034,0.996356 0.127282,-0.174818 0.295874,-0.320481 0.42435,-0.496162 0.197258,-0.305881 0.358342,-0.621118 0.44975,-0.976928 0.162276,-0.377418 0.328396,-0.749118 0.327502,-1.17012 -0.0038,-0.03675 -0.03145,-0.358582 -0.06122,-0.360143 -4.191393,-0.219676 -2.865585,-0.789083 -4.08472,0.261668 -0.256117,0.192977 -0.530315,0.36143 -0.775181,0.569402 -0.238158,0.217489 -0.466202,0.446291 -0.709859,0.657068 -0.274918,0.204203 -0.55106,0.408094 -0.804336,0.639242 -0.255092,0.273271 -0.536595,0.529721 -0.715722,0.86313 -0.836468,1.848215 1.572143,0.921777 3.629072,0.995231 0.08508,-0.240165 0.248636,-0.449146 0.311621,-0.699747 0.190858,-0.650569 0.34637,-1.311263 0.538471,-1.961583 0.08933,-0.308826 0.190702,-0.614327 0.270346,-0.925791 0.105143,-0.411185 0.14996,-0.831429 0.205438,-1.25095 0.08013,-1.347815 0.0366,-0.106258 -3.773438,-0.157684 -0.0054,-7.3e-5 2.87e-4,0.01074 -3.32e-4,0.01606 -0.0023,0.02001 -0.0045,0.04011 -0.0085,0.05985 -0.0056,0.0271 -0.01218,0.05403 -0.02033,0.08047 -0.01046,0.03395 -0.02363,0.067 -0.03545,0.100502 -0.131547,0.341057 -0.257389,0.684992 -0.440712,1.002892 -0.131624,0.250356 -0.26306,0.500185 -0.406235,0.744183 -0.213515,0.368379 -0.421218,0.739733 -0.549672,1.148667 -0.09394,0.284983 -0.192707,0.566665 -0.136992,0.87336 0.01722,0.09477 8.05e-4,0.266211 0.09694,0.272224 3.168413,0.198193 2.681534,0.316776 4.081777,-0.07721 0.477449,-0.147075 0.956773,-0.304215 1.390809,-0.556557 0.392833,-0.271044 0.829984,-0.53857 1.043659,-0.98239 0.121466,-0.253003 0.193983,-0.518209 0.181948,-0.801287 -0.001,-0.256543 -0.01576,-0.517935 -0.154402,-0.742482 -0.132108,-0.147409 -0.05969,-0.100433 -0.139951,-0.282842 -0.0293,-0.06658 -0.120286,-0.118571 -0.168927,-0.169526 -0.0912,-0.07534 -0.120464,-0.04842 -0.211018,-0.09967 -0.1195,-0.06764 -0.04555,-0.072 -0.164827,-0.170328 -0.03095,-0.02552 -0.0717,-0.03599 -0.107546,-0.05399 -0.310537,0.0023 -0.602885,-0.09487 -0.91191,-0.09961 -0.158462,-0.01787 -0.313054,-0.03046 -0.468677,-0.06902 -0.325299,-0.08061 -0.626744,-0.247364 -0.962073,-0.292149 z" />
  <path
     style="fill:#ffffff;stroke-width:0.109215;paint-order:stroke fill markers"
     d="m 25.283276,32 c 0,-8.465308 0.04016,-14.197952 0.09947,-14.197952 0.114384,0 25.334731,9.150123 27.720845,10.057322 l 0.252871,0.09614 -0.317731,0.629752 -0.31773,0.629753 h 0.976198 c 1.068717,0 0.996846,0.0582 0.780215,-0.631807 -0.05803,-0.184846 -0.03361,-0.18427 0.471304,0.01112 0.29288,0.113336 2.485831,0.913691 4.873227,1.778566 2.387394,0.864875 4.340742,1.597073 4.340771,1.627107 5.8e-5,0.05973 -7.008245,2.62116 -7.17174,2.62116 -0.05538,0 -0.162408,-0.170702 -0.237852,-0.379338 -0.13572,-0.375329 -0.142591,-0.37863 -0.649927,-0.312259 -0.282016,0.03689 -0.526621,0.07812 -0.543569,0.09161 -0.01695,0.01349 0.02968,0.250722 0.103624,0.527179 0.07394,0.276457 0.102566,0.534521 0.06361,0.573475 -0.03895,0.03895 -0.650772,0.289655 -1.359597,0.557111 -2.597739,0.980194 -28.875622,10.519016 -28.978153,10.519016 -0.06777,0 -0.10584,-5.107313 -0.10584,-14.197952 z m 18.42776,3.974971 c -0.03629,-0.03629 -0.130489,-0.04017 -0.20933,-0.0086 -0.08712,0.03486 -0.06124,0.06074 0.06599,0.06598 0.11513,0.0047 0.179636,-0.02107 0.143345,-0.05736 z m 7.189492,-0.0176 c 0.178538,-0.123983 0.485138,-0.604184 0.485138,-0.75983 0,-0.07674 -0.101525,-0.139522 -0.22561,-0.139522 -0.124086,0 -0.318244,-0.04957 -0.431464,-0.110169 -0.178703,-0.09564 -0.220889,-0.05603 -0.319856,0.300341 -0.0627,0.225782 -0.114277,0.467849 -0.114611,0.537929 -9.9e-4,0.206834 0.39438,0.318487 0.606403,0.171251 z m 5.618243,-2.367308 c 0,-0.02649 -0.04915,-0.07854 -0.109215,-0.115661 -0.06007,-0.03713 -0.109215,-0.01545 -0.109215,0.04816 0,0.06361 0.04915,0.115661 0.109215,0.115661 0.06007,0 0.109215,-0.02167 0.109215,-0.04816 z"
     id="path29" />
  <path
     style="fill:#ffffff;stroke-width:0.109215;paint-order:stroke fill markers"
     d="m 25.283276,32 c 0,-9.202395 0.03767,-14.197952 0.107065,-14.197952 0.106279,0 27.723357,10.024291 27.878197,10.119071 0.04445,0.02721 -0.04155,0.290975 -0.191126,0.586144 -0.149574,0.295168 -0.271891,0.575164 -0.271819,0.622212 7.3e-5,0.04705 0.405534,0.07988 0.901024,0.07296 0.953368,-0.01332 0.951701,-0.01212 0.784812,-0.565072 l -0.07545,-0.250011 0.69645,0.258966 c 0.383047,0.142432 2.575942,0.942991 4.873098,1.779022 2.297157,0.83603 4.176603,1.544628 4.176547,1.574662 -1.2e-4,0.06352 -6.986325,2.622639 -7.157194,2.621753 -0.06302,-3.25e-4 -0.178398,-0.177083 -0.2564,-0.392794 -0.117011,-0.323588 -0.182945,-0.381168 -0.376889,-0.329136 -0.129287,0.03469 -0.375952,0.06374 -0.548146,0.06456 -0.272838,0.0013 -0.303877,0.03308 -0.241483,0.247224 0.268814,0.92263 0.283132,0.896995 -0.716478,1.282742 -2.270338,0.876119 -29.341786,10.703606 -29.484862,10.703606 -0.05648,0 -0.09734,-5.960082 -0.09734,-14.197952 z m 25.911263,3.094905 c -0.07509,-0.0303 -0.197952,-0.0303 -0.273037,0 -0.07509,0.0303 -0.01365,0.05509 0.136518,0.05509 0.150171,0 0.211605,-0.02479 0.136519,-0.05509 z m -0.464164,-0.08505 c 0,-0.02649 -0.04915,-0.07854 -0.109215,-0.115661 -0.06007,-0.03712 -0.109215,-0.01545 -0.109215,0.04816 0,0.06361 0.04915,0.11566 0.109215,0.11566 0.06007,0 0.109215,-0.02167 0.109215,-0.04816 z"
     id="path30" />
  <path
     style="fill:#ffffff;stroke-width:0.109215;paint-order:stroke fill markers"
     d="m 25.283276,32 c 0,-8.507563 0.04003,-14.197952 0.09988,-14.197952 0.127593,0 25.786016,9.306412 27.670732,10.036285 l 0.303032,0.117351 -0.275729,0.544125 c -0.15165,0.299268 -0.275728,0.570331 -0.275728,0.602363 0,0.03203 0.398643,0.05824 0.885874,0.05824 h 0.885875 l -0.0719,-0.383248 -0.0719,-0.383247 0.68773,0.256453 c 0.37825,0.141049 2.567592,0.938807 4.865203,1.772795 2.297611,0.833989 4.177475,1.543601 4.177475,1.576913 0,0.06705 -6.976114,2.62125 -7.158948,2.621148 -0.06302,-3.5e-5 -0.178398,-0.176554 -0.2564,-0.392265 -0.117011,-0.323588 -0.182945,-0.381168 -0.376889,-0.329136 -0.129287,0.03469 -0.375952,0.06374 -0.548146,0.06456 -0.272838,0.0013 -0.303877,0.03308 -0.241483,0.247224 0.268174,0.920436 0.280367,0.898084 -0.695026,1.274235 -2.511556,0.968558 -29.346181,10.712113 -29.502122,10.712113 -0.06205,0 -0.101533,-5.52168 -0.101533,-14.197952 z m 25.911263,3.094905 c -0.07509,-0.0303 -0.197952,-0.0303 -0.273037,0 -0.07509,0.0303 -0.01365,0.05509 0.136518,0.05509 0.150171,0 0.211605,-0.02479 0.136519,-0.05509 z m -0.464164,-0.08505 c 0,-0.02649 -0.04915,-0.07854 -0.109215,-0.115661 -0.06007,-0.03712 -0.109215,-0.01545 -0.109215,0.04816 0,0.06361 0.04915,0.11566 0.109215,0.11566 0.06007,0 0.109215,-0.02167 0.109215,-0.04816 z"
     id="path31" />
  <path
     style="fill:#ffffff;stroke-width:0.109215;paint-order:stroke fill markers"
     d="m 25.283276,32 c 0,-8.529905 0.03996,-14.197952 0.100094,-14.197952 0.137312,0 25.914614,9.34854 27.670516,10.035143 l 0.303032,0.118493 -0.275729,0.544125 c -0.15165,0.299268 -0.275728,0.570331 -0.275728,0.602363 0,0.03203 0.398643,0.05824 0.885874,0.05824 h 0.885875 l -0.07184,-0.38296 -0.07184,-0.382959 0.851497,0.310111 c 0.468323,0.170561 2.657641,0.967955 4.86515,1.771987 2.207508,0.804032 4.013652,1.489368 4.013652,1.522968 0,0.06739 -6.975206,2.621769 -7.158948,2.621667 -0.06302,-3.5e-5 -0.178398,-0.176554 -0.2564,-0.392265 -0.117011,-0.323588 -0.182945,-0.381168 -0.376889,-0.329136 -0.129287,0.03469 -0.375952,0.06374 -0.548146,0.06456 -0.272838,0.0013 -0.303877,0.03308 -0.241483,0.247224 0.03938,0.135154 0.09975,0.399699 0.134164,0.587876 l 0.06257,0.342143 -1.131666,0.436459 c -2.593811,1.000374 -29.103401,10.61987 -29.266442,10.61987 -0.05643,0 -0.09731,-5.963977 -0.09731,-14.197952 z m 25.911263,3.094905 c -0.07509,-0.0303 -0.197952,-0.0303 -0.273037,0 -0.07509,0.0303 -0.01365,0.05509 0.136518,0.05509 0.150171,0 0.211605,-0.02479 0.136519,-0.05509 z m -0.464164,-0.08505 c 0,-0.02649 -0.04915,-0.07854 -0.109215,-0.115661 -0.06007,-0.03712 -0.109215,-0.01545 -0.109215,0.04816 0,0.06361 0.04915,0.11566 0.109215,0.11566 0.06007,0 0.109215,-0.02167 0.109215,-0.04816 z"
     id="path32" />
  <path
     style="fill:#ffffff;paint-order:stroke fill markers"
     id="path33"
     d="m 53.786484,32.914794 c 0.05631,-0.408838 0.225594,-0.789657 0.340054,-1.183582 0.07876,-0.214249 0.155105,-0.434873 0.187528,-0.661971 0.02176,-0.152381 -0.01182,-0.08129 0.03584,-0.163529 0.08646,7.45e-4 0.07683,-0.11395 0.134558,-0.149069 0.0134,-0.0082 0.03309,0.01589 0.04644,0.0076 0.04701,-0.02903 0.06588,-0.08878 0.100929,-0.131486 0.04801,-0.201291 0.143589,-0.360609 0.269576,-0.520431 0.01231,-0.03109 0.01784,-0.06582 0.03694,-0.09327 0.0089,-0.01285 0.03199,-0.0087 0.04225,-0.02051 0.0862,-0.09938 0.07764,-0.260748 0.12328,-0.37844 0.04779,-0.101312 0.02966,-0.227507 0.09439,-0.322203 0.05499,-0.08045 0.09554,-0.03744 0.1407,-0.144912 -0.0066,-0.09263 7.27e-4,-0.187319 -0.01978,-0.277892 -0.03375,-0.14907 -0.287877,-0.195644 -0.40663,-0.218536 -1.400881,-0.130452 -2.813431,-0.007 -4.219361,-0.0083 -2.062843,-0.0059 4.63554,-8.4e-4 3.121007,-0.0014 -0.149134,-1.3e-4 -0.07465,-6.2e-5 -0.223448,-2.05e-4 0,0 -3.730584,0.590616 -3.730584,0.590616 v 0 c 0.148812,5.3e-5 0.07433,1.1e-5 0.223459,1.27e-4 1.447711,0.0019 2.895642,0.01768 4.34319,-0.0039 1.69231,-0.05547 -4.942729,0.06086 -3.24949,-0.01224 0.08423,-0.0048 0.175538,-0.0198 0.259969,-0.01414 0.02143,0.0014 0.04257,0.01776 0.06328,0.01208 0.105565,-0.02897 0.06334,-0.275606 0.06402,-0.286437 -0.136927,0.05645 -0.181091,0.433689 -0.236469,0.567873 -0.04143,0.145241 -0.10617,0.261546 -0.198444,0.381764 -0.0485,0.07757 -0.09887,0.157175 -0.138275,0.239857 -0.0023,0.0049 -0.06905,0.167845 -0.08135,0.186547 -0.0122,0.01855 -0.0312,0.03159 -0.04681,0.04738 -0.03031,0.03047 -0.07139,0.05002 -0.09802,0.08376 -0.08079,0.102381 -0.14167,0.235051 -0.192381,0.352888 -0.05865,0.279598 -0.10162,0.56227 -0.215835,0.828052 -0.126016,0.403183 -0.280025,0.80032 -0.347068,1.2193 z" />
  <path
     style="fill:#ffffff;paint-order:stroke fill markers"
     id="path34"
     d="m 53.213202,28.909699 c 1.295192,0.0027 3.053754,-0.04208 -3.027064,0.0045 -0.07141,5.47e-4 0.14231,0.01217 0.21329,0.01998 0.101608,0.01118 0.224902,0.02985 0.327355,0.04473 0.378669,-0.0045 0.04637,-0.151251 -0.03336,-0.218517 6.883319,-0.05974 4.301337,0.510806 3.155073,-0.229747 -0.161628,-0.140232 -0.357633,-0.226379 -0.541352,-0.332654 -0.172102,-0.121913 -0.370694,-0.16829 -0.565034,-0.237249 -0.151989,0.05391 -0.06459,0.01222 -0.01186,0.407829 0.0042,0.03178 0.02016,0.06571 0.04626,0.08432 0.02388,0.01703 0.116637,0.01084 0.08731,0.01093 -3.721512,0.01059 -4.825019,0.278945 -3.558871,-0.02102 0.31053,0.0261 -0.186505,-0.02316 0.146327,0.03735 0.132569,0.0241 0.05351,-0.09698 0.168314,0.117338 0.06269,0.106263 0.126454,0.245156 0.227016,0.323601 0.04742,0.03699 0.10877,0.05134 0.163067,0.07719 0.01753,1.31e-4 0.03674,-0.0071 0.05259,3.93e-4 0.02364,0.01118 0.03829,0.03568 0.05857,0.05219 0.08924,0.07263 0.173255,0.156563 0.272593,0.21285 1.379408,0.772427 -3.297702,0.434384 3.970505,0.181575 0.05801,-0.002 0.07719,-0.43707 0.07965,-0.493389 0.0097,-0.260161 -0.07922,-0.492708 -0.258607,-0.678402 -0.135353,-0.120138 -0.314787,-0.22005 -0.49016,-0.273102 -1.444966,-0.231953 -2.921414,-0.01598 -4.380181,-0.0075 -1.951349,-0.0031 4.843332,8.86e-4 3.07204,-0.0011 0.01662,0.04611 -0.186371,-0.02899 -0.184996,1.2e-5 0.0093,0.196992 4.3e-4,0.396841 0.03819,0.590406 0.0049,0.02518 0.10263,-5e-5 0.07697,-5.1e-5 -1.20937,-4.7e-5 -2.418741,-5.9e-5 -3.628112,-8.8e-5 0.300807,-0.0065 0.59662,-0.0072 0.894209,0.03735 0.145796,0.06195 0.309718,0.08275 0.453556,0.148886 0.173031,0.07956 -0.01058,0.01615 0.15902,0.06934 0.106172,0.03809 0.292558,0.18938 0.394963,0.190563 0.153644,0.110873 0.3026,0.217299 0.463418,0.314786 0.223668,0.164624 0.437603,0.337959 0.672655,0.487755 0.08852,-0.01891 0.236687,0.183142 0.313681,0.195761 0.03433,0.0056 -0.02387,-0.08154 -0.0583,-0.08657 -0.03148,-0.0046 -0.06136,0.01682 -0.09204,0.02523 -0.05184,0.0149 -0.107188,0.02075 -0.155514,0.04471 -0.168463,0.08351 -0.316808,0.202787 -0.479142,0.297661 -0.100736,0.05887 -0.206194,0.109808 -0.304421,0.172778 -0.243487,0.156092 -0.47357,0.332171 -0.711207,0.497034 -0.538295,0.379725 -1.02437,0.814172 -1.468173,1.29898 -0.196128,0.268037 -0.275008,0.592045 -0.463704,0.862496 -0.0137,0.03156 -0.02511,0.06422 -0.04111,0.09467 -0.117001,0.222664 -0.104406,0.322548 -0.163195,0.557785 -0.06279,0.292057 -0.183022,0.564747 -0.267669,0.850428 -0.07453,0.279114 -0.05448,0.542795 0.04002,0.811621 1.276824,0.0056 2.554108,0.05161 3.830474,0.01693 0.05337,-0.0014 0.06657,-0.08353 0.101635,-0.123781 0.185153,-0.21255 0.419218,-0.360389 0.64281,-0.529344 0.154064,-0.184535 0.360298,-0.29764 0.556768,-0.427738 0.03511,-0.02325 0.07526,-0.04006 0.105743,-0.06911 0.03741,-0.03567 0.06345,-0.08161 0.09518,-0.122422 0.06836,-0.04229 0.11433,-0.112771 0.180357,-0.15769 0.02869,-0.01952 0.06388,-0.02743 0.0942,-0.04433 0.116805,-0.06509 0.214733,-0.154749 0.314181,-0.242727 0.110129,-0.111668 0.220655,-0.218532 0.365999,-0.281168 0.28138,-0.121261 -0.132994,0.107152 0.18523,-0.07776 0.03141,-0.07628 0.111081,-0.02953 0.159152,-0.05948 0.02895,-0.01804 0.04048,-0.05584 0.06682,-0.07751 0.01773,-0.01459 0.0434,-0.01621 0.06252,-0.02894 0.145098,-0.09665 -0.0017,-0.03661 0.15554,-0.08893 0.182961,0.0023 0.320764,-0.126812 0.487849,-0.180381 0.256029,-0.08208 0.006,0.02924 0.256539,-0.09359 0.23465,-0.07032 0.420859,-0.237114 0.664755,-0.278864 0.103205,-0.05811 0.17744,-0.104679 0.296122,-0.104597 0.036,2.5e-5 0.07269,0.0097 0.107963,0.0025 0.08046,-0.01644 0.153896,-0.0582 0.233285,-0.0792 1.290203,-0.194666 2.580662,0.110393 -3.47258,-0.01458 -0.0013,-2.6e-5 0.02698,-0.127172 0.03486,-0.105 0.0066,0.01871 0.0019,0.03966 0.0028,0.05949 0.01205,0.117166 -0.05987,0.188573 -0.116979,0.280709 -0.235982,0.380725 0.130088,-0.164504 -0.111985,0.190541 -0.121641,0.25555 0.01066,0.01197 -0.116683,0.176942 -0.02136,0.02767 -0.03052,0.06414 -0.05447,0.0896 -0.015,0.01595 -0.04253,0.0151 -0.0583,0.0303 -0.114303,0.110139 0.0084,0.05629 -0.109399,0.09594 -0.01757,0.02617 -0.02937,0.05732 -0.0527,0.07851 -0.01467,0.01333 -0.04153,0.0066 -0.05593,0.02017 -0.02375,0.02244 -0.03422,0.05571 -0.0528,0.08259 -0.05098,0.07375 -0.107302,0.142889 -0.167139,0.209449 -0.09055,0.06208 -0.168192,0.217267 -0.264503,0.266033 -0.01783,0.009 -0.03993,0.0019 -0.0599,0.0028 -0.02441,0.0134 -0.04883,0.0268 -0.07324,0.0402 -0.05422,-9.38e-4 -0.104648,0.02731 -0.158277,0.02982 -0.08205,0.0038 -0.326284,-0.03298 -0.244147,-0.03333 1.210961,-0.0052 2.421945,-0.0027 3.632917,-0.004 -5.952341,-2.028635 -2.501838,-0.09988 -4.061326,0.102685 -0.156053,0.02027 -0.182375,-0.0069 -0.334232,0.064 -0.215689,0.08221 -0.446148,0.0588 -0.671402,0.04918 1.197729,-6.51e-4 2.395458,-0.0012 3.593187,-0.002 0.326438,-2.14e-4 -0.280385,-0.0061 -0.341011,-0.0026 -0.193818,0.01119 0.007,0.388333 0.01868,0.582123 0.02782,-0.02271 0.05135,-0.05204 0.08345,-0.06814 0.07751,-0.03889 0.14034,-0.01697 0.221396,-0.04241 0.135574,-0.04256 0.248043,-0.145614 0.374835,-0.208337 0.02114,-0.0062 0.175423,-0.05284 0.208217,-0.05639 0.0269,-0.0029 0.05502,0.01116 0.08109,0.0039 0.07947,-0.02213 0.115215,-0.08946 0.17934,-0.133726 0.02897,-0.02 0.06326,-0.03088 0.09488,-0.04632 0.07025,-0.03338 0.119196,-0.101372 0.188181,-0.136797 0.02445,-0.01255 0.05449,-0.01066 0.07935,-0.02237 0.08883,-0.04184 0.124276,-0.0978 0.224355,-0.107579 0.08828,-0.03308 0.144543,-0.116489 0.218195,-0.166641 0.02263,-0.01541 0.05267,-0.01636 0.07653,-0.02978 0.05924,-0.03333 0.110898,-0.07864 0.166607,-0.117587 0.05926,-0.02763 0.08517,-0.101028 0.141788,-0.132143 0.01815,-0.01 0.04235,-0.0011 0.06145,-0.0091 0.02688,-0.01124 0.04666,-0.03598 0.0735,-0.04731 0.02605,-0.011 0.05868,-0.0038 0.08275,-0.01868 0.03175,-0.01958 0.05192,-0.05357 0.07788,-0.08036 0.06066,-0.04131 0.08341,-0.122348 0.141254,-0.166528 0.01732,-0.01323 0.04541,-0.0066 0.06199,-0.02076 0.02449,-0.02089 0.0313,-0.05767 0.05522,-0.07921 0.01482,-0.01334 0.03874,-0.01103 0.05603,-0.02096 0.02508,-0.0144 0.04662,-0.03424 0.06992,-0.05137 0.02111,-0.01544 0.04386,-0.02887 0.06334,-0.04632 0.04554,-0.04077 0.125678,-0.133794 0.17533,-0.172428 0.201114,-0.156489 0.0091,0.01325 0.225417,-0.115014 0.03893,-0.02309 0.07018,-0.05718 0.105276,-0.08578 0.120243,-0.08024 0.242984,-0.05938 0.376955,-0.03899 0.02701,0.0041 0.108281,0.01309 0.08096,0.01285 -1.228562,-0.01059 -2.457041,-0.02928 -3.685562,-0.04393 0.01454,-0.03688 0.04571,-0.08723 0.01593,-0.129576 -0.0063,-0.009 -0.01201,0.02083 -0.0225,0.02416 -0.01474,0.0047 -0.03154,-0.0069 -0.04633,-0.0024 -0.08182,0.02488 -0.09156,0.06438 -0.144521,0.1331 -0.112851,0.04439 -0.162773,0.136841 -0.240083,0.219085 -0.02796,0.02975 -0.0666,0.04802 -0.09483,0.07751 -0.216472,0.226138 0.0276,0.02333 -0.177663,0.184278 -0.05245,0.08159 -0.130145,0.155463 -0.218672,0.199159 -0.02603,0.01285 -0.05742,0.01128 -0.08398,0.02297 -0.07467,0.03286 -0.135723,0.08708 -0.199332,0.136246 -0.202036,0.140008 -0.331971,0.138747 -0.460165,0.374737 -0.01377,0.02953 -0.02754,0.05905 -0.04131,0.08858 -0.01393,0.0044 -0.03189,0.0026 -0.04179,0.01333 -0.01902,0.02065 -0.01882,0.05522 -0.03916,0.07457 -0.03291,0.03132 -0.07826,-0.02008 -0.105473,-0.01644 -0.03036,0.0041 -0.05468,0.02761 -0.08202,0.04141 -0.07075,0.07586 -0.153778,0.01794 -0.232797,0.03741 -0.03521,0.0087 -0.06243,0.03753 -0.09608,0.05105 -0.172165,0.06918 -0.03668,-0.03169 -0.189939,0.1118 -0.08018,0.06169 -0.157841,0.06142 -0.25353,0.05931 0,0 3.745414,0.494945 3.745414,0.494945 v 0 c 0.09013,-0.04756 0.174716,-0.102236 0.264354,-0.150573 0.18844,-0.02105 0.355742,-0.08532 0.517329,-0.184167 0.161769,-0.07762 0.20801,-0.233544 0.324034,-0.356291 0.161993,-0.07065 0.30808,-0.166209 0.449424,-0.271095 0.196463,-0.112802 0.359655,-0.248712 0.507701,-0.42074 0.162431,-0.180302 0.346756,-0.333827 0.515471,-0.506678 0.225617,-0.196964 0.280553,-0.468189 0.183858,-0.752099 -1.267144,-0.03038 -2.534153,-0.06701 -3.801432,-0.09115 -0.04019,-7.66e-4 -0.159347,0.03988 -0.188347,0.05261 -0.108047,0.04741 -0.198327,0.12442 -0.29455,0.190738 -0.211479,0.119016 -0.374085,0.298128 -0.572977,0.435457 -0.132688,0.103185 -0.233962,0.236291 -0.382486,0.319498 -0.174061,0.05098 -0.28225,0.197166 -0.436861,0.283745 -0.147475,0.0925 -0.286792,0.196091 -0.45508,0.247892 -0.153079,0.114597 -0.328671,0.199179 -0.493388,0.295728 -0.130298,0.07422 -0.139543,0.04313 -0.263048,0.07848 -0.104101,0.02979 -0.197774,0.105311 -0.297841,0.143944 -0.125744,0.06218 -0.228945,0.08424 -0.363979,0.114938 -0.0765,0.01739 -0.148137,0.06191 -0.226573,0.06376 -0.0256,6.02e-4 -0.04837,-0.01685 -0.07255,-0.02528 -0.04536,0.688793 -0.183628,0.593195 0.328732,0.593521 1.288827,8.19e-4 2.577653,-3.63e-4 3.86648,-5.45e-4 0.235334,-0.01538 0.458937,-0.06921 0.684844,-0.135413 0.155208,-0.0023 0.292331,-0.0473 0.443499,-0.07625 0.03559,-0.0068 0.143829,-0.01544 0.107595,-0.01547 -1.210345,-0.0012 -2.420677,0.0081 -3.631016,0.0121 1.277357,-6.3e-4 2.554727,0.004 3.832071,-0.0019 0.158217,-7.3e-4 0.303167,-0.112092 0.428156,-0.194143 0.161327,-0.110783 0.27138,-0.288555 0.407715,-0.428047 0.0979,-0.123087 0.203431,-0.235789 0.324713,-0.332176 0.121468,-0.164983 0.2563,-0.319692 0.344728,-0.508281 0.120737,-0.216333 0.245894,-0.432132 0.235953,-0.689645 -0.0011,-0.0534 -0.0079,-0.466919 -0.0728,-0.470052 -1.61509,-0.07794 -2.712263,-0.336327 -4.01449,0.04766 -0.03869,0.01042 -0.07739,0.02083 -0.116079,0.03125 -0.03763,0.0044 -0.07602,0.0046 -0.112899,0.0133 -0.145532,0.03433 -0.262384,0.140317 -0.412248,0.164101 -0.217155,0.112 -0.435513,0.217295 -0.666047,0.299293 -0.136742,0.0445 -0.260252,0.107728 -0.393381,0.160777 -0.05725,0.02281 -0.202479,0.06487 -0.25977,0.09287 -0.03484,0.01703 -0.06546,0.04159 -0.09819,0.06239 -0.06286,0.04722 -0.149284,0.118428 -0.222517,0.14967 -0.01799,0.0077 -0.04041,-0.0021 -0.05842,0.0056 -0.05782,0.02455 -0.09824,0.08167 -0.161951,0.09635 -0.2145,0.105166 -0.371401,0.281402 -0.556528,0.428546 -0.207023,0.149244 -0.420715,0.286862 -0.592243,0.479568 -0.267294,0.168452 -0.508087,0.368828 -0.747551,0.574115 -0.178102,0.135004 -0.345452,0.280279 -0.519566,0.419509 -0.04096,0.03276 -0.08054,0.06946 -0.128375,0.09098 -0.02761,0.01242 -0.06033,0.005 -0.0905,0.0075 1.225275,0.02104 2.45055,0.04207 3.675826,0.06311 -0.01429,0.03909 -0.01864,0.08343 -0.04286,0.117278 -0.0066,0.0092 -0.02153,-0.01313 -0.02372,-0.02421 -0.02499,-0.126735 0.01683,-0.268826 0.04218,-0.391458 0.08991,-0.291958 0.210524,-0.575017 0.268291,-0.876438 0.0404,-0.191946 0.0821,-0.367536 0.201272,-0.529172 0.145674,-0.265863 0.238165,-0.562338 0.450992,-0.787129 0.438298,-0.457679 0.930297,-0.857091 1.450687,-1.218618 0.319576,-0.217255 0.383307,-0.266702 0.712483,-0.466295 0.259108,-0.157107 0.532118,-0.292673 0.791023,-0.44902 0.05801,-0.03503 0.110731,-0.07815 0.166096,-0.117231 0.104264,-0.12861 0.138607,-0.139249 0.16295,-0.32458 0.04052,-0.308466 -0.126651,-0.390556 -0.335093,-0.5647 -0.251023,-0.09949 -0.473909,-0.250159 -0.66431,-0.440936 -0.04578,-0.03538 -0.101494,-0.05649 -0.147189,-0.09197 -0.02804,-0.02177 -0.04249,-0.05891 -0.07231,-0.07817 -0.02342,-0.01513 -0.05597,-0.0086 -0.08101,-0.02089 -0.0062,-0.0031 -0.157232,-0.115549 -0.160995,-0.118342 -0.02047,-0.02686 -0.03352,-0.06151 -0.0614,-0.08057 -0.01826,-0.01248 -0.0454,0.0015 -0.06602,-0.0065 -0.01639,-0.0064 -0.133425,-0.09501 -0.142642,-0.09908 -0.01975,-0.0087 -0.04445,5.75e-4 -0.06431,-0.0079 -0.02533,-0.01084 -0.04472,-0.0322 -0.06708,-0.0483 -0.195535,-0.140672 0.02307,0.0015 -0.160558,-0.07945 -0.197729,-0.08717 0.0283,-0.02404 -0.206811,-0.118633 -0.08342,-0.03356 -0.180451,-0.02728 -0.256301,-0.08413 -0.312307,-0.149901 -0.566972,-0.167697 -0.907899,-0.153119 -1.278426,-3.1e-5 -2.556853,-5.3e-5 -3.835279,-9.3e-5 -0.02639,-10e-7 -0.07396,-0.0259 -0.07918,-2.9e-5 -0.03902,0.193376 -0.03114,0.393395 -0.03997,0.590472 -8.86e-4,0.01977 0.200179,-0.02987 0.190629,6.26e-4 1.463377,0.0026 2.926927,0.01899 4.39014,-0.0039 2.183387,-0.05175 -4.492759,0.123514 -3.088164,-0.02097 0.07079,-0.0095 0.165529,-0.03787 0.237026,-0.01785 0.03302,0.0092 0.126924,0.07115 0.1568,0.07843 0.02276,0.0055 0.04675,-0.0031 0.07013,-0.0046 0.173395,0.09405 0.245384,0.082 0.244115,0.316427 -0.002,0.02252 0.0013,0.04618 -0.006,0.06757 -0.001,0.003 -0.240896,-0.114995 -0.03365,-0.117078 1.229917,-0.01236 2.459466,0.04921 3.6892,0.07381 -0.0249,-0.0018 -0.05229,0.0056 -0.07469,-0.0055 -0.03491,-0.01716 -0.05953,-0.05009 -0.0893,-0.07513 -0.02546,-0.01581 -0.05093,-0.03163 -0.07639,-0.04744 -0.02077,-0.0018 -0.04346,0.0036 -0.06231,-0.0053 -0.08398,-0.03964 -0.199324,-0.173612 -0.248628,-0.247666 -0.05428,-0.02562 -0.103258,-0.06865 -0.162664,-0.07723 -0.04508,-0.0065 -0.07141,0.04652 -0.116885,0.0099 -0.02126,-0.01713 -0.02456,-0.05022 -0.04474,-0.06861 -0.01177,-0.01072 -0.03049,-0.0092 -0.04573,-0.01379 -0.04586,-0.09864 -0.124478,-0.347005 -0.192082,-0.402957 -0.04364,-0.03612 -0.126231,-0.0035 -0.152121,-0.07575 -1.149206,-0.783586 -0.07514,-0.07802 -3.91812,-0.07016 -0.0311,6.4e-5 -0.0663,-0.005 -0.09258,0.01168 -0.15712,0.09955 -0.181695,0.433627 -0.0456,0.551644 0.01369,0.0038 0.168461,0.04629 0.173241,0.04826 0.03276,0.01356 0.05923,0.04118 0.09325,0.05113 0.05937,0.01735 0.230352,0.0115 0.291425,0.0615 0.180234,0.09649 0.349196,0.202868 0.536161,0.28216 1.204975,1.021666 2.415499,0.46357 4.348501,0.398056 0.07433,-0.07706 0.136572,-0.128387 0.178282,-0.23336 0.06403,-0.161157 0.08472,-0.400576 -0.04154,-0.540564 -0.02894,-0.03208 -0.07362,-0.04524 -0.110433,-0.06786 -0.167496,-0.01956 -0.388881,-0.07762 -0.548335,-0.08037 -1.477182,-0.02549 -2.953717,-0.03674 -4.430721,-0.03765 z" />
  <path
     style="fill:#ffffff;paint-order:stroke fill markers"
     id="path36"
     d="m 54.139204,32.54228 c 0.0067,0.326877 -0.07749,0.645692 -0.104853,0.97108 -0.01361,0.08173 0.0076,0.251812 -0.05924,0.323879 -0.0263,0.02838 -0.159789,-0.09291 -0.179187,-0.104794 1.211825,-0.0094 2.423641,-0.02004 3.635476,-0.02808 0.03564,-2.36e-4 -0.07119,0.0048 -0.10683,0.0047 -0.114196,-5.33e-4 -0.228285,-0.02479 -0.342156,-0.02385 -1.276222,0.01053 -2.552382,0.0277 -3.828573,0.04156 -0.131248,0.189198 -0.241256,0.217277 -0.435323,0.29952 -0.329507,0.139641 0.07551,-2.1e-4 -0.239797,0.102949 -0.237189,0.01008 -0.382319,0.231998 -0.617494,0.252071 -0.08074,-0.01267 -0.110465,-0.04236 -0.135013,0.07897 -0.0032,0.01566 -0.03936,0.449985 0.04875,0.456624 3.638558,0.274182 2.87051,0.895296 3.936839,-0.02653 0.199028,-0.04545 0.358675,-0.171179 0.52551,-0.277883 0.39735,-0.254135 -0.206626,0.169158 0.204479,-0.124282 0.02705,-0.01973 0.05106,-0.04452 0.08114,-0.0592 0.02245,-0.01095 0.05035,-0.006 0.07319,-0.01611 0.125286,-0.05545 0.218268,-0.178594 0.337914,-0.247847 0.199714,-0.06432 0.01788,0.0092 0.203463,-0.116491 0.02756,-0.01867 0.06122,-0.02672 0.08958,-0.04415 0.09942,-0.06109 0.183042,-0.147832 0.269713,-0.224947 0.12442,-0.01954 0.199085,-0.126695 0.297064,-0.188709 0.178926,-0.113248 -0.04418,0.12019 0.166357,-0.137073 0.03208,-0.02279 0.06156,-0.04977 0.09625,-0.06836 0.240158,-0.12871 -0.04377,0.06838 0.210119,-0.100645 0.111716,-0.07438 0.186116,-0.167901 0.313928,-0.212515 0.622143,1.182932 0.01469,-0.01758 -3.737931,-0.178448 -0.03221,-0.0014 -0.03399,0.05493 -0.05382,0.08035 -0.09904,0.12696 -0.199452,0.252673 -0.297005,0.381231 -0.08597,0.144764 -0.241876,0.207827 -0.36155,0.315332 -0.09797,0.08801 -0.180619,0.201982 -0.264178,0.30355 -0.225353,0.124039 -0.373132,0.336126 -0.625924,0.406838 -0.365809,0.179223 0.153596,-0.0824 -0.225926,0.134197 -0.03473,0.01982 -0.07684,0.02567 -0.109817,0.0483 -0.119804,0.0822 -0.100039,0.12749 -0.25424,0.149023 -0.180856,0.118767 -0.398472,0.08101 -0.602571,0.06656 1.20647,-0.0015 2.41294,-0.0031 3.61941,-0.0045 0.03679,-4.2e-5 -0.07358,7.24e-4 -0.110364,4.39e-4 -0.109974,-8.53e-4 -0.220333,-0.0094 -0.33027,-0.0081 -1.281443,0.01545 -2.56285,0.03372 -3.844276,0.05057 -0.235398,0.09392 -0.495025,0.07088 -0.743548,0.06516 -1.326299,-0.04115 -0.133219,-0.0029 3.491445,-0.0033 0.03721,-4e-6 -0.07441,-4.44e-4 -0.111616,-8.77e-4 -0.124789,-0.0015 -0.24956,-0.0038 -0.374354,-0.0052 -1.407598,-0.0019 -2.830364,-0.08779 -4.22608,-0.0017 -1.170667,0.07225 4.690222,0.0647 3.518672,0.0086 -0.27672,-0.1162 -0.52306,-0.286592 -0.793365,-0.417446 -0.323222,-0.125307 -0.644733,-0.259766 -0.98455,-0.332106 -0.201411,-0.02869 -0.103151,-0.01763 -0.294674,-0.0341 0,0 -3.728785,0.582171 -3.728785,0.582171 v 0 c 0.18868,-0.0081 0.09181,-0.0057 0.29062,-0.0065 0.09725,0.0046 0.238926,0.0084 0.334976,0.02458 0.220882,0.03717 0.41992,0.15957 0.637072,0.213532 0.150108,0.04755 0.303341,0.101766 0.442284,0.177381 0.171649,0.09342 0.08327,0.06505 0.23745,0.166702 0.03457,0.0228 0.07252,0.04002 0.108776,0.06003 1.172933,0.942729 -1.477552,-1.148884 3.960585,0.147615 1.17155,0.279307 -2.408769,9.3e-5 -3.613153,10e-7 -0.04045,-3e-6 0.0809,-1.9e-4 0.121355,-2.68e-4 0.14279,-2.77e-4 0.115555,-2.09e-4 0.260731,-2.7e-4 1.483906,0.0021 2.968804,0.06568 4.452055,0.0034 0.256888,-0.01707 0.503059,-0.06938 0.753475,-0.12416 -1.208495,0.0036 -2.416992,0.0068 -3.625487,0.01067 -0.0365,1.18e-4 0.07301,2.83e-4 0.109508,7.14e-4 0.110497,0.0013 0.221423,0.01056 0.331792,0.01063 1.280418,7.24e-4 2.560835,-0.002 3.841252,-0.003 0.227666,-0.02765 0.42513,-0.1091 0.624539,-0.220536 0.18153,-0.141137 0.381768,-0.245085 0.589104,-0.345422 0.225182,-0.166426 0.450529,-0.343928 0.640525,-0.549298 0.204431,-0.220361 0.457775,-0.392626 0.623518,-0.648928 1.119823,-1.548628 -0.160176,-0.748758 -3.383378,-0.992769 -0.03061,-0.0023 -0.03214,0.05231 -0.04821,0.07847 -0.19941,0.165105 -0.443374,0.262951 -0.626023,0.45019 -0.161065,0.0806 -0.321173,0.202972 -0.46333,0.313566 -0.178041,0.131555 -0.376489,0.227988 -0.558685,0.351464 -0.156233,0.119681 -0.331243,0.198203 -0.490879,0.311757 -0.2333,0.127445 -0.463659,0.253779 -0.722184,0.327068 -1.252746,-0.214976 -1.93963,-0.327929 3.568015,0.06254 0.02858,0.002 -0.06557,0.194013 -0.04608,0.354808 0.01029,0.08492 0.117279,-0.0041 0.124782,-0.0079 0.196572,-0.119846 0.402547,-0.196976 0.6173,-0.274924 0.07969,-0.04131 0.162733,-0.07612 0.241307,-0.119522 0.109161,-0.06029 0.224588,-0.187034 0.34872,-0.214914 0.02543,-0.0057 0.05135,0.009 0.07703,0.01347 -1.214773,0.0024 -2.429549,0.0037 -3.644319,0.0073 -0.03797,1.11e-4 0.07593,0.0014 0.11386,0.003 0.110721,0.0047 0.227914,0.03606 0.337151,0.03577 1.278078,-0.0033 2.556096,-0.01866 3.834143,-0.02798 0.230277,-0.180844 0.257647,-0.444941 0.272078,-0.721251 0.02957,-0.335494 0.113112,-0.665312 0.107927,-1.003461 z" />
  <text
     xml:space="preserve"
     style="font-size:13.6479px;line-height:0;font-family:sans-serif;-inkscape-font-specification:'sans-serif, Normal';text-align:start;writing-mode:lr-tb;direction:ltr;text-anchor:start;fill:#ffffff;stroke-width:1.27948;paint-order:stroke fill markers"
     x="26.252901"
     y="35.50951"
     id="text36"
     transform="scale(0.95627638,1.0457228)"><tspan
       sodipodi:role="line"
       id="tspan36"
       x="26.252901"
       y="35.50951"
       style="fill:#000000;fill-opacity:1;stroke-width:1.27948">LNA</tspan></text>
</svg>
