<?xml version="1.0" encoding="UTF-8" standalone="no"?>
<svg
   viewBox="0 0 96 70"
   width="96"
   height="70"
   version="1.1"
   id="svg8"
   sodipodi:docname="antenna.svg"
   inkscape:version="1.4.2 (f4327f4, 2025-05-13)"
   xmlns:inkscape="http://www.inkscape.org/namespaces/inkscape"
   xmlns:sodipodi="http://sodipodi.sourceforge.net/DTD/sodipodi-0.dtd"
   xmlns="http://www.w3.org/2000/svg"
   xmlns:svg="http://www.w3.org/2000/svg">
  <defs
     id="defs8" />
  <sodipodi:namedview
     id="namedview8"
     pagecolor="#ffffff"
     bordercolor="#000000"
     borderopacity="0.25"
     inkscape:showpageshadow="2"
     inkscape:pageopacity="0.0"
     inkscape:pagecheckerboard="0"
     inkscape:deskcolor="#d1d1d1"
     inkscape:zoom="9.5"
     inkscape:cx="49.842105"
     inkscape:cy="34.947368"
     inkscape:window-width="1440"
     inkscape:window-height="830"
     inkscape:window-x="690"
     inkscape:window-y="1073"
     inkscape:window-maximized="1"
     inkscape:current-layer="g8" />
  <g
     fill="none"
     stroke="#111111"
     stroke-width="2.4"
     stroke-linecap="round"
     stroke-linejoin="round"
     id="g8">
    <line
       x1="7.5789475"
       y1="35.789474"
       x2="33.578949"
       y2="35.789474"
       id="line1" />
    <line
       x1="33.578949"
       y1="35.789474"
       x2="47.578949"
       y2="21.789474"
       id="line2" />
    <line
       x1="33.578949"
       y1="35.789474"
       x2="47.578949"
       y2="49.789474"
       id="line3" />
    <path
       d="m 59.842105,35.473685 a 12,12 0 0 1 12,-12"
       id="path3" />
    <path
       d="m 59.842105,34.526316 a 12,12 0 0 0 12,12"
       id="path4" />
    <path
       d="m 55.052631,35.684211 a 22,22 0 0 1 21,-22.000001"
       id="path5" />
    <path
       d="m 55.052631,35.68421 a 22,22 0 0 0 21,22"
       id="path6" />
    <path
       d="m 49.789473,35.789474 a 32,32 0 0 1 31,-32.0000003"
       id="path7" />
    <path
       d="m 49.789473,35.473685 a 32,32 0 0 0 31,32"
       id="path8" />
  </g>
</svg>
