<svg xmlns="http://www.w3.org/2000/svg" viewBox="0 0 96 64" width="96" height="64">
  <g fill="none" stroke="#111" stroke-width="2.4" stroke-linecap="round" stroke-linejoin="round">
    <line x1="8" y1="24" x2="22" y2="24"/>
    <line x1="8" y1="40" x2="22" y2="40"/>
    <rect x="22" y="20" width="18" height="24"/>
    <polygon points="40,18 40,46 70,54 70,10"/>
    <line x1="70" y1="10" x2="70" y2="54"/>
    <path d="M72 32 A10 10 0 0 1 82 22"/>
    <path d="M72 32 A10 10 0 0 0 82 42"/>
    <path d="M72 32 A18 18 0 0 1 90 14"/>
    <path d="M72 32 A18 18 0 0 0 90 50"/>
  </g>
</svg>
