<svg xmlns="http://www.w3.org/2000/svg" viewBox="0 0 96 64" width="96" height="64">
  <g fill="none" stroke="#111" stroke-width="2.4" stroke-linecap="round" stroke-linejoin="round">

<line x1="8" y1="32" x2="22" y2="32"/>
<polygon points="22,20 54,12 54,52 22,44"/>
<circle cx="30" cy="24" r="1.8" fill="#111"/><circle cx="38" cy="22" r="1.8" fill="#111"/><circle cx="46" cy="20" r="1.8" fill="#111"/>
<circle cx="30" cy="32" r="1.8" fill="#111"/><circle cx="38" cy="30" r="1.8" fill="#111"/><circle cx="46" cy="28" r="1.8" fill="#111"/>
<circle cx="30" cy="40" r="1.8" fill="#111"/><circle cx="38" cy="38" r="1.8" fill="#111"/><circle cx="46" cy="36" r="1.8" fill="#111"/>
<path d="M56 32 A10 10 0 0 1 66 22"/><path d="M56 32 A10 10 0 0 0 66 42"/>
<path d="M56 32 A18 18 0 0 1 74 14"/><path d="M56 32 A18 18 0 0 0 74 50"/>
<path d="M56 32 A26 26 0 0 1 82 6"/><path d="M56 32 A26 26 0 0 0 82 58"/>
<text x="24" y="58" font-family="Arial" font-size="7.5" fill="#111" stroke="none">AESA</text>

  </g>
</svg>
