<svg xmlns="http://www.w3.org/2000/svg" viewBox="0 0 96 64" width="96" height="64">
  <g fill="none" stroke="#111" stroke-width="2.4" stroke-linecap="round" stroke-linejoin="round">

<line x1="8" y1="32" x2="20" y2="32"/>
<line x1="20" y1="18" x2="28" y2="18"/><line x1="20" y1="32" x2="28" y2="32"/><line x1="20" y1="46" x2="28" y2="46"/>
<line x1="28" y1="18" x2="38" y2="12"/><line x1="28" y1="18" x2="38" y2="24"/>
<line x1="28" y1="32" x2="38" y2="26"/><line x1="28" y1="32" x2="38" y2="38"/>
<line x1="28" y1="46" x2="38" y2="40"/><line x1="28" y1="46" x2="38" y2="52"/>
<path d="M44 32 A12 12 0 0 1 56 20"/><path d="M44 32 A12 12 0 0 0 56 44"/>
<path d="M44 32 A22 22 0 0 1 66 10"/><path d="M44 32 A22 22 0 0 0 66 54"/>

  </g>
</svg>
