<?xml version="1.0" encoding="UTF-8" standalone="no"?>
<svg
   viewBox="0 0 96 64"
   width="96"
   height="64"
   version="1.1"
   id="svg4"
   sodipodi:docname="band_pass_filter.svg"
   inkscape:version="1.4.2 (f4327f4, 2025-05-13)"
   xmlns:inkscape="http://www.inkscape.org/namespaces/inkscape"
   xmlns:sodipodi="http://sodipodi.sourceforge.net/DTD/sodipodi-0.dtd"
   xmlns="http://www.w3.org/2000/svg"
   xmlns:svg="http://www.w3.org/2000/svg">
  <defs
     id="defs4" />
  <sodipodi:namedview
     id="namedview4"
     pagecolor="#ffffff"
     bordercolor="#000000"
     borderopacity="0.25"
     inkscape:showpageshadow="2"
     inkscape:pageopacity="0.0"
     inkscape:pagecheckerboard="0"
     inkscape:deskcolor="#d1d1d1"
     inkscape:zoom="9.5"
     inkscape:cx="47.947368"
     inkscape:cy="40.421053"
     inkscape:window-width="1440"
     inkscape:window-height="830"
     inkscape:window-x="690"
     inkscape:window-y="1073"
     inkscape:window-maximized="1"
     inkscape:current-layer="svg4" />
  <g
     fill="none"
     stroke="#111"
     stroke-width="2.4"
     stroke-linecap="round"
     stroke-linejoin="round"
     id="g4">
    <line
       x1="8"
       y1="32"
       x2="20"
       y2="32"
       id="line1" />
    <line
       x1="76"
       y1="32"
       x2="88"
       y2="32"
       id="line2" />
    <rect
       x="20"
       y="12"
       width="56"
       height="40"
       id="rect2" />
    <path
       d="M30 20 Q32.5 23.5 35.0 23.5 T40.0 20.0 Q42.5 16.5 45.0 16.5 T50.0 20.0 Q52.5 23.5 55.0 23.5 T60.0 20.0 "
       id="path2" />
    <line
       x1="42.4"
       y1="23.2"
       x2="47.6"
       y2="14.8"
       id="line3" />
    <path
       d="M30 32 Q32.5 35.5 35.0 35.5 T40.0 32.0 Q42.5 28.5 45.0 28.5 T50.0 32.0 Q52.5 35.5 55.0 35.5 T60.0 32.0 "
       id="path3" />
    <path
       d="M30 44 Q32.5 47.5 35.0 47.5 T40.0 44.0 Q42.5 40.5 45.0 40.5 T50.0 44.0 Q52.5 47.5 55.0 47.5 T60.0 44.0 "
       id="path4" />
    <line
       x1="42.4"
       y1="47.2"
       x2="47.6"
       y2="38.8"
       id="line4" />
  </g>
  <text
     xml:space="preserve"
     style="font-size:8px;line-height:0;font-family:sans-serif;-inkscape-font-specification:'sans-serif, Normal';text-align:start;writing-mode:lr-tb;direction:ltr;text-anchor:start;fill:#000000;stroke:#ffffff;paint-order:stroke fill markers"
     x="17.052633"
     y="60"
     id="text4"><tspan
       sodipodi:role="line"
       id="tspan4"
       x="17.052633"
       y="60">Band-pass filter</tspan></text>
</svg>
