<svg xmlns="http://www.w3.org/2000/svg" viewBox="0 0 128 96" width="128" height="96">
  <g fill="none" stroke="#111" stroke-width="2.4" stroke-linecap="round" stroke-linejoin="round">
    <line x1="8"  y1="48" x2="24" y2="48"/>
    <polygon points="24,26 24,70 74,48"/>
    <line x1="74" y1="48" x2="90" y2="48"/>

    <line x1="120" y1="18" x2="102" y2="18"/>
    <line x1="120" y1="38" x2="102" y2="38"/>
    <line x1="120" y1="58" x2="102" y2="58"/>
    <line x1="120" y1="78" x2="102" y2="78"/>

    <line x1="90" y1="48" x2="102" y2="18"/>
    <line x1="90" y1="48" x2="102" y2="38"/>
    <line x1="90" y1="48" x2="102" y2="58"/>
    <line x1="90" y1="48" x2="102" y2="78"/>

    <text x="16" y="42" font-family="Arial" font-size="8" fill="#111" stroke="none">OUT</text>
    <text x="104" y="14" font-family="Arial" font-size="8" fill="#111" stroke="none">IN1</text>
    <text x="104" y="34" font-family="Arial" font-size="8" fill="#111" stroke="none">IN2</text>
    <text x="104" y="54" font-family="Arial" font-size="8" fill="#111" stroke="none">IN3</text>
    <text x="104" y="74" font-family="Arial" font-size="8" fill="#111" stroke="none">IN4</text>
    <text x="36" y="88" font-family="Arial" font-size="9" fill="#111" stroke="none">4:1 Combiner</text>
  </g>
</svg>
