<svg xmlns="http://www.w3.org/2000/svg" viewBox="0 0 96 64" width="96" height="64">
  <g fill="none" stroke="#111" stroke-width="2.4" stroke-linecap="round" stroke-linejoin="round">

<rect x="18" y="12" width="60" height="40" rx="4"/>
<line x1="10" y1="20" x2="18" y2="20"/><line x1="10" y1="28" x2="18" y2="28"/><line x1="10" y1="36" x2="18" y2="36"/><line x1="10" y1="44" x2="18" y2="44"/>
<line x1="78" y1="20" x2="86" y2="20"/><line x1="78" y1="28" x2="86" y2="28"/><line x1="78" y1="36" x2="86" y2="36"/><line x1="78" y1="44" x2="86" y2="44"/>
<line x1="30" y1="12" x2="30" y2="4"/><line x1="42" y1="12" x2="42" y2="4"/><line x1="54" y1="12" x2="54" y2="4"/><line x1="66" y1="12" x2="66" y2="4"/>
<line x1="30" y1="52" x2="30" y2="60"/><line x1="42" y1="52" x2="42" y2="60"/><line x1="54" y1="52" x2="54" y2="60"/><line x1="66" y1="52" x2="66" y2="60"/>
<text x="34" y="36" font-family="Arial" font-size="12" fill="#111" stroke="none">FPGA</text>

  </g>
</svg>
