<?xml version="1.0" encoding="UTF-8" standalone="no"?>
<svg
   viewBox="0 0 96 64"
   width="96"
   height="64"
   version="1.1"
   id="svg3"
   sodipodi:docname="high_pass_filter.svg"
   inkscape:version="1.4.2 (f4327f4, 2025-05-13)"
   xmlns:inkscape="http://www.inkscape.org/namespaces/inkscape"
   xmlns:sodipodi="http://sodipodi.sourceforge.net/DTD/sodipodi-0.dtd"
   xmlns="http://www.w3.org/2000/svg"
   xmlns:svg="http://www.w3.org/2000/svg">
  <defs
     id="defs3" />
  <sodipodi:namedview
     id="namedview3"
     pagecolor="#ffffff"
     bordercolor="#000000"
     borderopacity="0.25"
     inkscape:showpageshadow="2"
     inkscape:pageopacity="0.0"
     inkscape:pagecheckerboard="0"
     inkscape:deskcolor="#d1d1d1"
     showguides="false"
     inkscape:zoom="9.5"
     inkscape:cx="42.421053"
     inkscape:cy="35.052632"
     inkscape:window-width="1440"
     inkscape:window-height="830"
     inkscape:window-x="690"
     inkscape:window-y="1073"
     inkscape:window-maximized="1"
     inkscape:current-layer="svg3" />
  <g
     fill="none"
     stroke="#111"
     stroke-width="2.4"
     stroke-linecap="round"
     stroke-linejoin="round"
     id="g3">
    <line
       x1="8"
       y1="32"
       x2="20"
       y2="32"
       id="line1" />
    <line
       x1="76"
       y1="32"
       x2="88"
       y2="32"
       id="line2" />
    <rect
       x="20"
       y="12"
       width="56"
       height="40"
       id="rect2" />
    <path
       d="M30 24 Q32.5 28.0 35.0 28.0 T40.0 24.0 Q42.5 20.0 45.0 20.0 T50.0 24.0 Q52.5 28.0 55.0 28.0 T60.0 24.0 "
       id="path2" />
    <path
       d="M30 38 Q32.5 42.0 35.0 42.0 T40.0 38.0 Q42.5 34.0 45.0 34.0 T50.0 38.0 Q52.5 42.0 55.0 42.0 T60.0 38.0 "
       id="path3" />
    <line
       x1="42.4"
       y1="41.2"
       x2="47.6"
       y2="32.8"
       id="line3" />
  </g>
  <text
     xml:space="preserve"
     style="font-size:8px;line-height:0;font-family:sans-serif;-inkscape-font-specification:'sans-serif, Normal';text-align:start;writing-mode:lr-tb;direction:ltr;text-anchor:start;fill:#ffffff;stroke:#ffffff;paint-order:stroke fill markers"
     x="17.263157"
     y="60.421055"
     id="text3"><tspan
       sodipodi:role="line"
       id="tspan3"
       x="17.263157"
       y="60.421055"
       style="font-size:8px;fill:#000000;fill-opacity:1">High-pass filter</tspan></text>
</svg>
