<?xml version="1.0" encoding="UTF-8" standalone="no"?>
<svg
   viewBox="0 0 96 64"
   width="96"
   height="64"
   version="1.1"
   id="svg1"
   sodipodi:docname="matlab.svg"
   inkscape:version="1.4.2 (f4327f4, 2025-05-13)"
   xmlns:inkscape="http://www.inkscape.org/namespaces/inkscape"
   xmlns:sodipodi="http://sodipodi.sourceforge.net/DTD/sodipodi-0.dtd"
   xmlns="http://www.w3.org/2000/svg"
   xmlns:svg="http://www.w3.org/2000/svg">
  <defs
     id="defs1">
    <rect
       x="13.105802"
       y="50.238908"
       width="70.006826"
       height="11.358362"
       id="rect48" />
  </defs>
  <sodipodi:namedview
     id="namedview1"
     pagecolor="#ffffff"
     bordercolor="#000000"
     borderopacity="0.25"
     inkscape:showpageshadow="2"
     inkscape:pageopacity="0.0"
     inkscape:pagecheckerboard="0"
     inkscape:deskcolor="#d1d1d1"
     inkscape:zoom="9.15625"
     inkscape:cx="48"
     inkscape:cy="32"
     inkscape:window-width="1440"
     inkscape:window-height="830"
     inkscape:window-x="-6"
     inkscape:window-y="-6"
     inkscape:window-maximized="1"
     inkscape:current-layer="svg1" />
  <g
     fill="none"
     stroke="#111111"
     stroke-width="2.4"
     stroke-linecap="round"
     stroke-linejoin="round"
     id="g1"
     transform="translate(-0.10921502,-5.1331058)"
     inkscape:transform-center-x="-1.0921502"
     inkscape:transform-center-y="0.43686006">
    <rect
       x="10"
       y="10"
       width="76"
       height="44"
       rx="6"
       id="rect1" />
    <path
       d="m 20,42 c 8,-14 14,-24 20,-24 5,0 8,10 14,20 4,6 8,8 14,4"
       id="path1" />
    <line
       x1="22"
       y1="48"
       x2="74"
       y2="48"
       id="line1" />
  </g>
  <path
     style="fill:#ffffff;fill-opacity:0;paint-order:stroke fill markers"
     d="m 58.866894,24.245734 c 0.07281,0.14562 0.173703,0.280316 0.21843,0.43686 0.03,0.105013 -0.02142,0.220551 0,0.327645 0.03845,0.19224 0.170882,0.355882 0.21843,0.546075 0.156431,0.625721 0.377487,1.191833 0.65529,1.74744 0.0021,0.0041 0.209506,0.519302 0.21843,0.546075 0.02303,0.06907 -0.03256,0.153307 0,0.21843 0.01628,0.03256 0.08347,-0.02574 0.109215,0 0.02574,0.02574 -0.01628,0.07665 0,0.109215 0.122096,0.244191 0.546076,0.361743 0.546076,0.655291"
     id="path38" />
  <path
     style="fill:#ffffff;fill-opacity:0;stroke-width:0.109215;paint-order:stroke fill markers"
     d="m 63.071672,27.028306 v -3.895939 l 1.938567,0.03791 c 1.770088,0.03462 1.983786,0.06018 2.458881,0.294136 1.271464,0.626119 1.433485,2.253193 0.307282,3.085831 l -0.33222,0.245621 0.532133,0.303914 c 0.600331,0.342864 0.992968,0.990821 0.992968,1.638666 0,0.642147 -0.524282,1.526276 -1.09215,1.841758 -0.470139,0.261188 -0.585077,0.274578 -2.648464,0.308539 l -2.156997,0.0355 z m 3.939851,3.005381 c 1.101243,-0.305917 1.31991,-1.847247 0.352037,-2.481422 -0.231328,-0.151572 -0.598402,-0.19886 -1.799775,-0.231853 l -1.509177,-0.04145 v 1.43219 1.432189 l 1.283276,-6.09e-4 c 0.705802,-3.35e-4 1.45894,-0.04941 1.673639,-0.109049 z m 0.0433,-3.731282 c 0.656392,-0.299073 0.806638,-1.280031 0.285468,-1.863822 l -0.318413,-0.356672 -1.483635,-0.03577 -1.483634,-0.03576 v 1.281289 1.281289 l 1.353798,-0.06861 c 0.744589,-0.03774 1.485476,-0.12861 1.646416,-0.201939 z"
     id="path39" />
  <path
     style="fill:#ffffff;fill-opacity:0;stroke-width:0.109215;paint-order:stroke fill markers"
     d="m 63.071672,27.028306 v -3.895939 l 1.938567,0.03791 c 1.770088,0.03462 1.983786,0.06018 2.458881,0.294136 1.271464,0.626119 1.433485,2.253193 0.307282,3.085831 l -0.33222,0.245621 0.532133,0.303914 c 0.600331,0.342864 0.992968,0.990821 0.992968,1.638666 0,0.642147 -0.524282,1.526276 -1.09215,1.841758 -0.470139,0.261188 -0.585077,0.274578 -2.648464,0.308539 l -2.156997,0.0355 z m 3.939851,3.005381 c 1.101243,-0.305917 1.31991,-1.847247 0.352037,-2.481422 -0.231328,-0.151572 -0.598402,-0.19886 -1.799775,-0.231853 l -1.509177,-0.04145 v 1.43219 1.432189 l 1.283276,-6.09e-4 c 0.705802,-3.35e-4 1.45894,-0.04941 1.673639,-0.109049 z m 0.0433,-3.731282 c 0.656392,-0.299073 0.806638,-1.280031 0.285468,-1.863822 l -0.318413,-0.356672 -1.483635,-0.03577 -1.483634,-0.03576 v 1.281289 1.281289 l 1.353798,-0.06861 c 0.744589,-0.03774 1.485476,-0.12861 1.646416,-0.201939 z"
     id="path40" />
  <path
     style="fill:#ffffff;fill-opacity:0;stroke-width:0.109215;paint-order:stroke fill markers"
     d="M 14.826012,52.582101 C 13.473276,52.21784 12.405244,51.330915 11.768921,50.043403 L 11.358362,49.212694 V 32.005664 14.798635 l 0.349646,-0.738133 c 0.412905,-0.871676 1.240643,-1.787667 1.978167,-2.189078 C 14.912507,11.203971 12.421401,11.249147 48,11.249147 c 35.578599,0 33.087493,-0.04518 34.313825,0.622277 0.737525,0.401411 1.565262,1.317402 1.978167,2.189078 l 0.349646,0.738133 V 32 49.201365 l -0.349646,0.738133 c -0.412905,0.871676 -1.240642,1.787667 -1.978167,2.189078 -1.226825,0.667722 1.27399,0.622959 -34.364075,0.61509 -27.689166,-0.0061 -32.636053,-0.03024 -33.123738,-0.161565 z m 59.99698,-3.683307 c 0.346445,-0.317495 0.38975,-0.417357 0.38975,-0.898794 0,-0.481437 -0.04331,-0.581299 -0.38975,-0.898794 l -0.38975,-0.357179 H 48.009983 21.586725 l -0.335248,0.282093 c -0.623848,0.524933 -0.627999,1.369013 -0.0095,1.929511 l 0.331426,0.300342 H 48.003327 74.433242 Z M 64.491468,45.043068 c 1.614156,-0.426706 4.279255,-1.81952 4.588989,-2.398264 0.269085,-0.50279 0.184191,-1.116569 -0.208791,-1.509552 -0.498843,-0.498843 -1.155511,-0.480714 -1.977468,0.05459 -2.105364,1.371141 -4.281893,1.915459 -5.849029,1.462758 -1.14941,-0.332031 -2.09668,-0.914569 -3.195723,-1.965262 -1.760021,-1.68259 -2.880781,-3.34997 -5.362182,-7.977443 l -0.878469,-1.638226 1.472053,-0.03038 1.472053,-0.03039 V 30.522515 30.03413 h -1.723892 -1.723893 l -0.18737,-0.317192 c -0.165457,-0.280095 -0.187371,-0.688847 -0.187371,-3.494881 v -3.177688 h -0.598163 -0.598161 l -0.02982,1.912445 -0.02982,1.912445 -0.717995,-1.339066 -0.717995,-1.339067 0.308439,-0.03422 c 0.292166,-0.03242 0.308438,-0.06267 0.308438,-0.573379 v -0.539155 h -0.652485 c -0.625808,0 -0.659964,-0.01451 -0.835393,-0.354949 -0.348385,-0.676074 -1.497474,-2.324802 -2.235712,-3.207828 -2.443939,-2.923262 -5.347313,-3.487037 -8.685358,-1.686519 -1.876279,1.012052 -3.988054,2.975325 -6.077948,5.650538 -0.43049,0.551059 -0.812617,0.983441 -0.849172,0.960849 -0.03655,-0.02259 -0.156456,-0.338304 -0.266448,-0.701584 l -0.199993,-0.66051 H 27.99636 27.139932 v 2.30107 2.30107 l -0.96383,1.494152 c -2.443579,3.788094 -7.316527,12.153272 -7.408009,12.717006 -0.129062,0.795314 0.571013,1.470431 1.408329,1.358124 0.235159,-0.03154 0.518636,-0.139769 0.629948,-0.240504 0.111312,-0.100736 0.927056,-1.44415 1.812764,-2.985365 1.339948,-2.331631 3.615593,-6.163879 5.02016,-8.454086 0.174988,-0.285324 0.379951,-0.518771 0.455474,-0.518771 0.07552,0 0.137314,-0.0872 0.137314,-0.193772 0,-0.106575 0.308714,-0.671918 0.686031,-1.256317 l 0.68603,-1.062547 0.413484,1.256318 0.413484,1.256318 h 0.530864 0.530863 l 0.209048,-0.573379 c 0.114975,-0.315358 0.597686,-1.702185 1.072693,-3.081836 l 0.863646,-2.508456 0.029,3.081835 0.02901,3.081836 h 0.544373 0.544375 v -3.980068 -3.980069 l -0.458462,-0.03358 -0.458461,-0.03358 0.352935,-0.400871 c 0.547797,-0.622201 2.085513,-1.890072 2.863956,-2.361378 1.615089,-0.977851 3.042431,-1.208009 4.08911,-0.659368 0.807921,0.423491 1.483477,1.068717 2.41976,2.311123 l 0.836874,1.110494 -1.054937,0.03126 -1.054939,0.03126 v 0.54212 0.542121 h 1.255973 1.255973 v 3.440273 3.440273 h 0.598705 0.598706 l 0.02928,-2.578282 0.02928,-2.578281 1.792528,3.479305 c 4.335167,8.414585 5.555056,10.431246 7.626857,12.608355 0.51162,0.537624 1.255482,1.224485 1.653027,1.526358 0.939021,0.713037 2.489103,1.466353 3.453185,1.678195 0.956761,0.210233 2.871972,0.15607 3.877134,-0.109647 z M 37.147863,29.8157 37.569738,28.614334 h 1.593346 1.593348 l 0.441978,1.174062 0.441978,1.174061 0.678793,0.0328 c 0.388524,0.01877 0.662444,-0.01077 0.640558,-0.06908 -0.02103,-0.05603 -0.750865,-1.851258 -1.621855,-3.989389 l -1.583618,-3.887514 -0.611188,-0.0025 -0.611189,-0.0025 -1.45298,3.791484 c -0.799139,2.085317 -1.475912,3.879173 -1.503939,3.986348 -0.04434,0.169574 0.02704,0.194864 0.55003,0.194864 h 0.600987 z m 19.088401,0.737201 c 0.09483,-0.25529 0.290276,-0.783618 0.434324,-1.174061 l 0.261906,-0.709898 1.583785,-0.03016 1.583785,-0.03016 0.463443,1.204219 0.463444,1.20422 h 0.651793 c 0.574732,0 0.64348,-0.0226 0.581476,-0.191126 -0.03867,-0.10512 -0.767455,-1.898977 -1.619513,-3.986349 l -1.549196,-3.795221 -0.603776,4.93e-4 -0.603776,4.95e-4 -1.465979,3.849335 c -0.806289,2.117135 -1.487315,3.910769 -1.513391,3.985854 -0.0342,0.09846 0.120778,0.136519 0.555922,0.136519 h 0.603334 z m 11.73349,0.137693 c 1.229113,-0.703665 1.460568,-2.518587 0.438902,-3.441601 -0.232614,-0.210154 -0.481583,-0.382099 -0.553262,-0.382099 -0.07168,0 0.02086,-0.159727 0.20564,-0.354949 0.467039,-0.49343 0.580604,-0.7544 0.580604,-1.334212 0,-0.618748 -0.202949,-1.1136 -0.614535,-1.49843 -0.530954,-0.496438 -0.842397,-0.559458 -3.016864,-0.610458 l -2.047782,-0.04803 v 4.006032 4.006032 l 2.266212,-0.03521 c 2.182489,-0.03391 2.283755,-0.04525 2.741085,-0.307074 z"
     id="path41" />
  <path
     style="fill:#ffffff;fill-opacity:0;stroke-width:0.109215;paint-order:stroke fill markers"
     d="M 14.826012,52.582101 C 13.473276,52.21784 12.405244,51.330915 11.768921,50.043403 L 11.358362,49.212694 V 32.005664 14.798635 l 0.349646,-0.738133 c 0.412905,-0.871676 1.240643,-1.787667 1.978167,-2.189078 C 14.912507,11.203971 12.421401,11.249147 48,11.249147 c 35.578599,0 33.087493,-0.04518 34.313825,0.622277 0.737525,0.401411 1.565262,1.317402 1.978167,2.189078 l 0.349646,0.738133 V 32 49.201365 l -0.349646,0.738133 c -0.412905,0.871676 -1.240642,1.787667 -1.978167,2.189078 -1.226825,0.667722 1.27399,0.622959 -34.364075,0.61509 -27.689166,-0.0061 -32.636053,-0.03024 -33.123738,-0.161565 z m 59.99698,-3.683307 c 0.346445,-0.317495 0.38975,-0.417357 0.38975,-0.898794 0,-0.481437 -0.04331,-0.581299 -0.38975,-0.898794 l -0.38975,-0.357179 H 48.009983 21.586725 l -0.335248,0.282093 c -0.623848,0.524933 -0.627999,1.369013 -0.0095,1.929511 l 0.331426,0.300342 H 48.003327 74.433242 Z M 64.491468,45.043068 c 1.614156,-0.426706 4.279255,-1.81952 4.588989,-2.398264 0.269085,-0.50279 0.184191,-1.116569 -0.208791,-1.509552 -0.498843,-0.498843 -1.155511,-0.480714 -1.977468,0.05459 -2.105364,1.371141 -4.281893,1.915459 -5.849029,1.462758 -1.14941,-0.332031 -2.09668,-0.914569 -3.195723,-1.965262 -1.760021,-1.68259 -2.880781,-3.34997 -5.362182,-7.977443 l -0.878469,-1.638226 1.472053,-0.03038 1.472053,-0.03039 V 30.522515 30.03413 h -1.723892 -1.723893 l -0.18737,-0.317192 c -0.165457,-0.280095 -0.187371,-0.688847 -0.187371,-3.494881 v -3.177688 h -0.598163 -0.598161 l -0.02982,1.912445 -0.02982,1.912445 -0.717995,-1.339066 -0.717995,-1.339067 0.308439,-0.03422 c 0.292166,-0.03242 0.308438,-0.06267 0.308438,-0.573379 v -0.539155 h -0.652485 c -0.625808,0 -0.659964,-0.01451 -0.835393,-0.354949 -0.348385,-0.676074 -1.497474,-2.324802 -2.235712,-3.207828 -2.443939,-2.923262 -5.347313,-3.487037 -8.685358,-1.686519 -1.876279,1.012052 -3.988054,2.975325 -6.077948,5.650538 -0.43049,0.551059 -0.812617,0.983441 -0.849172,0.960849 -0.03655,-0.02259 -0.156456,-0.338304 -0.266448,-0.701584 l -0.199993,-0.66051 H 27.99636 27.139932 v 2.30107 2.30107 l -0.96383,1.494152 c -2.443579,3.788094 -7.316527,12.153272 -7.408009,12.717006 -0.129062,0.795314 0.571013,1.470431 1.408329,1.358124 0.235159,-0.03154 0.518636,-0.139769 0.629948,-0.240504 0.111312,-0.100736 0.927056,-1.44415 1.812764,-2.985365 1.339948,-2.331631 3.615593,-6.163879 5.02016,-8.454086 0.174988,-0.285324 0.379951,-0.518771 0.455474,-0.518771 0.07552,0 0.137314,-0.0872 0.137314,-0.193772 0,-0.106575 0.308714,-0.671918 0.686031,-1.256317 l 0.68603,-1.062547 0.413484,1.256318 0.413484,1.256318 h 0.530864 0.530863 l 0.209048,-0.573379 c 0.114975,-0.315358 0.597686,-1.702185 1.072693,-3.081836 l 0.863646,-2.508456 0.029,3.081835 0.02901,3.081836 h 0.544373 0.544375 v -3.980068 -3.980069 l -0.458462,-0.03358 -0.458461,-0.03358 0.352935,-0.400871 c 0.547797,-0.622201 2.085513,-1.890072 2.863956,-2.361378 1.615089,-0.977851 3.042431,-1.208009 4.08911,-0.659368 0.807921,0.423491 1.483477,1.068717 2.41976,2.311123 l 0.836874,1.110494 -1.054937,0.03126 -1.054939,0.03126 v 0.54212 0.542121 h 1.255973 1.255973 v 3.440273 3.440273 h 0.598705 0.598706 l 0.02928,-2.578282 0.02928,-2.578281 1.792528,3.479305 c 4.335167,8.414585 5.555056,10.431246 7.626857,12.608355 0.51162,0.537624 1.255482,1.224485 1.653027,1.526358 0.939021,0.713037 2.489103,1.466353 3.453185,1.678195 0.956761,0.210233 2.871972,0.15607 3.877134,-0.109647 z M 37.147863,29.8157 37.569738,28.614334 h 1.593346 1.593348 l 0.441978,1.174062 0.441978,1.174061 0.678793,0.0328 c 0.388524,0.01877 0.662444,-0.01077 0.640558,-0.06908 -0.02103,-0.05603 -0.750865,-1.851258 -1.621855,-3.989389 l -1.583618,-3.887514 -0.611188,-0.0025 -0.611189,-0.0025 -1.45298,3.791484 c -0.799139,2.085317 -1.475912,3.879173 -1.503939,3.986348 -0.04434,0.169574 0.02704,0.194864 0.55003,0.194864 h 0.600987 z m 19.088401,0.737201 c 0.09483,-0.25529 0.290276,-0.783618 0.434324,-1.174061 l 0.261906,-0.709898 1.583785,-0.03016 1.583785,-0.03016 0.463443,1.204219 0.463444,1.20422 h 0.651793 c 0.574732,0 0.64348,-0.0226 0.581476,-0.191126 -0.03867,-0.10512 -0.767455,-1.898977 -1.619513,-3.986349 l -1.549196,-3.795221 -0.603776,4.93e-4 -0.603776,4.95e-4 -1.465979,3.849335 c -0.806289,2.117135 -1.487315,3.910769 -1.513391,3.985854 -0.0342,0.09846 0.120778,0.136519 0.555922,0.136519 h 0.603334 z m 11.73349,0.137693 c 1.229113,-0.703665 1.460568,-2.518587 0.438902,-3.441601 -0.232614,-0.210154 -0.481583,-0.382099 -0.553262,-0.382099 -0.07168,0 0.02086,-0.159727 0.20564,-0.354949 0.467039,-0.49343 0.580604,-0.7544 0.580604,-1.334212 0,-0.618748 -0.202949,-1.1136 -0.614535,-1.49843 -0.530954,-0.496438 -0.842397,-0.559458 -3.016864,-0.610458 l -2.047782,-0.04803 v 4.006032 4.006032 l 2.266212,-0.03521 c 2.182489,-0.03391 2.283755,-0.04525 2.741085,-0.307074 z"
     id="path42" />
  <path
     style="fill:#ffffff;fill-opacity:0;stroke-width:0.109215;paint-order:stroke fill markers"
     d="m 63.071672,27.028306 v -3.895939 l 1.938567,0.03791 c 1.770088,0.03462 1.983786,0.06018 2.458881,0.294136 1.271464,0.626119 1.433485,2.253193 0.307282,3.085831 l -0.33222,0.245621 0.532133,0.303914 c 0.600331,0.342864 0.992968,0.990821 0.992968,1.638666 0,0.642147 -0.524282,1.526276 -1.09215,1.841758 -0.470139,0.261188 -0.585077,0.274578 -2.648464,0.308539 l -2.156997,0.0355 z m 3.939851,3.005381 c 1.101243,-0.305917 1.31991,-1.847247 0.352037,-2.481422 -0.231328,-0.151572 -0.598402,-0.19886 -1.799775,-0.231853 l -1.509177,-0.04145 v 1.43219 1.432189 l 1.283276,-6.09e-4 c 0.705802,-3.35e-4 1.45894,-0.04941 1.673639,-0.109049 z m 0.0433,-3.731282 c 0.656392,-0.299073 0.806638,-1.280031 0.285468,-1.863822 l -0.318413,-0.356672 -1.483635,-0.03577 -1.483634,-0.03576 v 1.281289 1.281289 l 1.353798,-0.06861 c 0.744589,-0.03774 1.485476,-0.12861 1.646416,-0.201939 z"
     id="path43" />
  <path
     style="fill:#ffffff;fill-opacity:0;stroke-width:0.109215;paint-order:stroke fill markers"
     d="M 14.826012,52.582101 C 13.473276,52.21784 12.405244,51.330915 11.768921,50.043403 L 11.358362,49.212694 V 32.005664 14.798635 l 0.349646,-0.738133 c 0.412905,-0.871676 1.240643,-1.787667 1.978167,-2.189078 C 14.912507,11.203971 12.421401,11.249147 48,11.249147 c 35.578599,0 33.087493,-0.04518 34.313825,0.622277 0.737525,0.401411 1.565262,1.317402 1.978167,2.189078 l 0.349646,0.738133 V 32 49.201365 l -0.349646,0.738133 c -0.412905,0.871676 -1.240642,1.787667 -1.978167,2.189078 -1.226825,0.667722 1.27399,0.622959 -34.364075,0.61509 -27.689166,-0.0061 -32.636053,-0.03024 -33.123738,-0.161565 z m 59.99698,-3.683307 c 0.346445,-0.317495 0.38975,-0.417357 0.38975,-0.898794 0,-0.481437 -0.04331,-0.581299 -0.38975,-0.898794 l -0.38975,-0.357179 H 48.009983 21.586725 l -0.335248,0.282093 c -0.623848,0.524933 -0.627999,1.369013 -0.0095,1.929511 l 0.331426,0.300342 H 48.003327 74.433242 Z M 64.491468,45.043068 c 1.614156,-0.426706 4.279255,-1.81952 4.588989,-2.398264 0.269085,-0.50279 0.184191,-1.116569 -0.208791,-1.509552 -0.498843,-0.498843 -1.155511,-0.480714 -1.977468,0.05459 -2.105364,1.371141 -4.281893,1.915459 -5.849029,1.462758 -1.14941,-0.332031 -2.09668,-0.914569 -3.195723,-1.965262 -1.760021,-1.68259 -2.880781,-3.34997 -5.362182,-7.977443 l -0.878469,-1.638226 1.472053,-0.03038 1.472053,-0.03039 V 30.522515 30.03413 h -1.723892 -1.723893 l -0.18737,-0.317192 c -0.165457,-0.280095 -0.187371,-0.688847 -0.187371,-3.494881 v -3.177688 h -0.598163 -0.598161 l -0.02982,1.912445 -0.02982,1.912445 -0.717995,-1.339066 -0.717995,-1.339067 0.308439,-0.03422 c 0.292166,-0.03242 0.308438,-0.06267 0.308438,-0.573379 v -0.539155 h -0.652485 c -0.625808,0 -0.659964,-0.01451 -0.835393,-0.354949 -0.348385,-0.676074 -1.497474,-2.324802 -2.235712,-3.207828 -2.443939,-2.923262 -5.347313,-3.487037 -8.685358,-1.686519 -1.876279,1.012052 -3.988054,2.975325 -6.077948,5.650538 -0.43049,0.551059 -0.812617,0.983441 -0.849172,0.960849 -0.03655,-0.02259 -0.156456,-0.338304 -0.266448,-0.701584 l -0.199993,-0.66051 H 27.99636 27.139932 v 2.30107 2.30107 l -0.96383,1.494152 c -2.443579,3.788094 -7.316527,12.153272 -7.408009,12.717006 -0.129062,0.795314 0.571013,1.470431 1.408329,1.358124 0.235159,-0.03154 0.518636,-0.139769 0.629948,-0.240504 0.111312,-0.100736 0.927056,-1.44415 1.812764,-2.985365 1.339948,-2.331631 3.615593,-6.163879 5.02016,-8.454086 0.174988,-0.285324 0.379951,-0.518771 0.455474,-0.518771 0.07552,0 0.137314,-0.0872 0.137314,-0.193772 0,-0.106575 0.308714,-0.671918 0.686031,-1.256317 l 0.68603,-1.062547 0.413484,1.256318 0.413484,1.256318 h 0.530864 0.530863 l 0.209048,-0.573379 c 0.114975,-0.315358 0.597686,-1.702185 1.072693,-3.081836 l 0.863646,-2.508456 0.029,3.081835 0.02901,3.081836 h 0.544373 0.544375 v -3.980068 -3.980069 l -0.458462,-0.03358 -0.458461,-0.03358 0.352935,-0.400871 c 0.547797,-0.622201 2.085513,-1.890072 2.863956,-2.361378 1.615089,-0.977851 3.042431,-1.208009 4.08911,-0.659368 0.807921,0.423491 1.483477,1.068717 2.41976,2.311123 l 0.836874,1.110494 -1.054937,0.03126 -1.054939,0.03126 v 0.54212 0.542121 h 1.255973 1.255973 v 3.440273 3.440273 h 0.598705 0.598706 l 0.02928,-2.578282 0.02928,-2.578281 1.792528,3.479305 c 4.335167,8.414585 5.555056,10.431246 7.626857,12.608355 0.51162,0.537624 1.255482,1.224485 1.653027,1.526358 0.939021,0.713037 2.489103,1.466353 3.453185,1.678195 0.956761,0.210233 2.871972,0.15607 3.877134,-0.109647 z M 37.147863,29.8157 37.569738,28.614334 h 1.593346 1.593348 l 0.441978,1.174062 0.441978,1.174061 0.678793,0.0328 c 0.388524,0.01877 0.662444,-0.01077 0.640558,-0.06908 -0.02103,-0.05603 -0.750865,-1.851258 -1.621855,-3.989389 l -1.583618,-3.887514 -0.611188,-0.0025 -0.611189,-0.0025 -1.45298,3.791484 c -0.799139,2.085317 -1.475912,3.879173 -1.503939,3.986348 -0.04434,0.169574 0.02704,0.194864 0.55003,0.194864 h 0.600987 z m 19.088401,0.737201 c 0.09483,-0.25529 0.290276,-0.783618 0.434324,-1.174061 l 0.261906,-0.709898 1.583785,-0.03016 1.583785,-0.03016 0.463443,1.204219 0.463444,1.20422 h 0.651793 c 0.574732,0 0.64348,-0.0226 0.581476,-0.191126 -0.03867,-0.10512 -0.767455,-1.898977 -1.619513,-3.986349 l -1.549196,-3.795221 -0.603776,4.93e-4 -0.603776,4.95e-4 -1.465979,3.849335 c -0.806289,2.117135 -1.487315,3.910769 -1.513391,3.985854 -0.0342,0.09846 0.120778,0.136519 0.555922,0.136519 h 0.603334 z m 11.73349,0.137693 c 1.143549,-0.65468 1.448032,-2.378755 0.583669,-3.304928 -0.154162,-0.165188 -0.327424,-0.300342 -0.385025,-0.300342 -0.0576,0 0.02781,0.12283 0.189793,0.272956 0.660323,0.611967 0.770603,1.44804 0.310751,2.355925 -0.227343,0.448842 -0.419793,0.659325 -0.791809,0.866 -0.470139,0.261187 -0.585077,0.274578 -2.648464,0.308539 l -2.156997,0.0355 v -3.895939 -3.89594 l 1.938567,0.03791 c 1.770088,0.03462 1.983786,0.06018 2.458881,0.294136 0.917427,0.451777 1.331759,1.58361 0.891427,2.435117 -0.09453,0.182804 -0.147301,0.356944 -0.117267,0.386978 0.122987,0.122987 0.398358,-0.644685 0.398358,-1.110533 0,-0.617075 -0.20328,-1.112153 -0.614535,-1.496674 -0.530954,-0.496438 -0.842397,-0.559458 -3.016864,-0.610458 l -2.047782,-0.04803 v 4.006032 4.006032 l 2.266212,-0.03521 c 2.182489,-0.03391 2.283755,-0.04525 2.741085,-0.307074 z m -0.958231,-0.656908 c 1.101243,-0.305916 1.319911,-1.847246 0.352037,-2.481421 -0.231328,-0.151573 -0.598402,-0.198859 -1.799775,-0.231852 l -1.509177,-0.04145 v 1.432189 1.432189 l 1.283276,-6.1e-4 c 0.705802,-3.34e-4 1.45894,-0.04941 1.673639,-0.109049 z m 0.795891,-3.221399 c -0.0707,-0.184248 -0.213958,-0.214105 -0.306768,-0.06394 -0.03395,0.05494 5e-6,0.124778 0.07546,0.1552 0.241903,0.09753 0.295615,0.07633 0.231303,-0.09126 z m -0.752592,-0.509883 c 0.656392,-0.299072 0.806639,-1.280029 0.285468,-1.863821 l -0.318413,-0.356672 -1.483635,-0.03577 -1.483634,-0.03577 v 1.281289 1.281288 l 1.353797,-0.06861 c 0.74459,-0.03774 1.485477,-0.12861 1.646417,-0.20194 z"
     id="path44" />
  <rect
     style="fill:#ffffff;fill-opacity:0;paint-order:stroke fill markers"
     id="rect45"
     width="22.061434"
     height="14.197952"
     x="54.170647"
     y="20.860067"
     rx="4" />
  <rect
     style="fill:#ffffff;fill-opacity:0;paint-order:stroke fill markers"
     id="rect46"
     width="31.344709"
     height="14.307167"
     x="23.481228"
     y="14.088737"
     rx="4" />
  <rect
     style="fill:#ffffff;fill-opacity:0;paint-order:stroke fill markers"
     id="rect47"
     width="13.542662"
     height="5.7883959"
     x="26.32082"
     y="21.296928"
     rx="4" />
  <text
     xml:space="preserve"
     id="text48"
     style="font-size:5.33333px;line-height:0;font-family:sans-serif;-inkscape-font-specification:'sans-serif, Normal';text-align:start;writing-mode:lr-tb;direction:ltr;white-space:pre;shape-inside:url(#rect48);display:inline;fill:#000000;fill-opacity:0;paint-order:stroke fill markers"><tspan
       x="13.105469"
       y="51.770709"
       id="tspan1">Matlab</tspan></text>
  <text
     xml:space="preserve"
     style="font-size:5.33333px;line-height:0;font-family:sans-serif;-inkscape-font-specification:'sans-serif, Normal';text-align:start;writing-mode:lr-tb;direction:ltr;text-anchor:start;fill:#000000;fill-opacity:0;paint-order:stroke fill markers"
     x="35.604095"
     y="57.119453"
     id="text49"><tspan
       sodipodi:role="line"
       id="tspan48"
       x="35.604095"
       y="57.119453" /></text>
  <text
     xml:space="preserve"
     style="font-size:5.33333px;line-height:0;font-family:sans-serif;-inkscape-font-specification:'sans-serif, Normal';text-align:start;writing-mode:lr-tb;direction:ltr;text-anchor:start;fill:#000000;fill-opacity:0;paint-order:stroke fill markers"
     x="40.627987"
     y="52.64164"
     id="text50"><tspan
       sodipodi:role="line"
       id="tspan49"
       x="40.627987"
       y="52.64164" /></text>
  <text
     xml:space="preserve"
     style="font-size:10.6667px;line-height:0;font-family:sans-serif;-inkscape-font-specification:'sans-serif, Normal';text-align:start;writing-mode:lr-tb;direction:ltr;text-anchor:start;white-space:pre;inline-size:45.8823;display:inline;fill:#000000;fill-opacity:0;paint-order:stroke fill markers"
     x="20.969282"
     y="53.296928"
     id="text51"
     transform="translate(6.552901,6.334471)"><tspan
       x="20.969282"
       y="53.296928"
       id="tspan3"><tspan
         style="fill-opacity:1"
         id="tspan2">MATLAB</tspan></tspan></text>
</svg>
